<svg width="1440" height="899" viewBox="0 0 1440 899" fill="none" xmlns="http://www.w3.org/2000/svg">
<path d="M4.12183 0H1447V885.558H4.12183V0Z" fill="white"/>
<path d="M1030.55 297.842L962.369 386.321L894.19 297.842L962.369 209.363L1030.55 297.842Z" fill="#FFFDD6"/>
<path d="M1111.02 402.16L1042.84 490.639L974.658 402.16L1042.84 313.772L1111.02 402.16Z" fill="#FFFDD6"/>
<path d="M950.08 402.16L881.901 490.639L813.721 402.16L881.901 313.772L950.08 402.16Z" fill="#E8FDDE"/>
<path d="M869.703 297.842L801.523 386.321L733.253 297.842L801.523 209.363L869.703 297.842Z" fill="#FFFDD6"/>
<path d="M1432.8 402.16L1364.62 490.639L1296.44 402.16L1364.62 313.772L1432.8 402.16Z" fill="#FFFDD6"/>
<path d="M1191.49 297.842L1123.21 386.321L1055.04 297.842L1123.21 209.363L1191.49 297.842Z" fill="#E8FDDE"/>
<path d="M1352.33 297.842L1284.15 386.321L1215.97 297.842L1284.15 209.363L1352.33 297.842Z" fill="#FFFDD6"/>
<path d="M386.984 297.842L318.804 386.321L250.625 297.842L318.804 209.363L386.984 297.842Z" fill="#FFE5B4"/>
<path d="M238.336 313.772L306.607 402.16L238.336 490.639L170.156 402.16L238.336 313.772Z" fill="#FFE5B4"/>
<path d="M238.336 522.407L306.607 610.886L238.336 699.365L170.156 610.886L238.336 522.407Z" fill="#FFE5B4"/>
<path d="M547.921 297.842L479.741 386.321L411.47 297.842L479.741 209.363L547.921 297.842Z" fill="#E8FDDE"/>
<path d="M628.389 402.16L560.118 490.639L491.939 402.16L560.118 313.772L628.389 402.16Z" fill="#D9E7EB"/>
<path d="M467.452 402.16L399.273 490.639L331.093 402.16L399.273 313.772L467.452 402.16Z" fill="#FFFDD6"/>
<path d="M708.766 297.842L640.587 386.321L572.407 297.842L640.587 209.363L708.766 297.842Z" fill="#FFE5B4"/>
<path d="M1271.86 402.16L1203.68 490.639L1135.5 402.16L1203.68 313.772L1271.86 402.16Z" fill="#E8FDDE"/>
<path d="M1351.26 505.523L1283.08 594.002L1214.9 505.523L1283.08 417.135L1351.26 505.523Z" fill="#FFE5B4"/>
<path d="M789.235 402.16L721.055 490.639L652.876 402.16L721.055 313.772L789.235 402.16Z" fill="#FFFDD6"/>
<path d="M869.703 715.204L801.523 803.682L733.253 715.204L801.523 626.816L869.703 715.204Z" fill="#FFFDD6"/>
<path d="M708.766 506.569L640.587 595.047L572.407 506.569L640.587 418.09L708.766 506.569Z" fill="#D9E7EB"/>
<path d="M789.235 610.886L721.055 699.365L652.876 610.886L721.055 522.407L789.235 610.886Z" fill="#E8FDDE"/>
<path d="M950.08 610.886L881.901 699.365L813.721 610.886L881.901 522.407L950.08 610.886Z" fill="#D9E7EB"/>
<path d="M869.703 506.569L801.523 595.047L733.253 506.569L801.523 418.09L869.703 506.569Z" fill="#E8FDDE"/>
<path d="M1111.02 610.886L1042.84 699.365L974.658 610.886L1042.84 522.407L1111.02 610.886Z" fill="#FFFDD6"/>
<path d="M1030.55 506.569L962.369 595.047L894.19 506.569L962.369 418.09L1030.55 506.569Z" fill="#E8FDDE"/>
<path d="M1030.55 715.204L962.369 803.682L894.19 715.204L962.369 626.816L1030.55 715.204Z" fill="#D9E7EB"/>
<path d="M1191.49 715.204L1123.21 803.682L1055.04 715.204L1123.21 626.816L1191.49 715.204Z" fill="#D9E7EB"/>
<path d="M467.452 610.886L399.273 699.365L331.093 610.886L399.273 522.407L467.452 610.886Z" fill="#E8FDDE"/>
<path d="M318.804 803.682L250.625 715.204L318.804 626.816L386.984 715.204L318.804 803.682Z" fill="#FFFDD6"/>
<path d="M318.804 418.09L386.984 506.569L318.804 595.047L250.625 506.569L318.804 418.09Z" fill="#D9E7EB"/>
<path d="M708.766 715.204L640.587 803.682L572.407 715.204L640.587 626.816L708.766 715.204Z" fill="#FFFDD6"/>
<path d="M20.9618 0H134.018L77.49 73.2772L20.9618 0Z" fill="#FFFDD6"/>
<path d="M547.921 715.204L479.741 803.682L411.47 715.204L479.741 626.816L547.921 715.204Z" fill="#E8FDDE"/>
<path d="M628.389 610.886L560.118 699.365L491.939 610.886L560.118 522.407L628.389 610.886Z" fill="#FFE5B4"/>
<path d="M1191.49 506.568L1123.21 595.047L1055.04 506.568L1123.21 418.089L1191.49 506.568Z" fill="#E8FDDE"/>
<path d="M547.921 506.569L479.741 595.047L411.47 506.569L479.741 418.09L547.921 506.569Z" fill="#E8FDDE"/>
<path d="M1270.89 609.931L1202.62 698.41L1134.44 609.931L1202.62 521.453L1270.89 609.931Z" fill="#FFE5B4"/>
<path d="M1284.15 803.682L1215.97 715.204L1284.15 626.816L1352.33 715.204L1284.15 803.682Z" fill="#D9E7EB"/>
<path d="M1366.85 698.286L1298.67 609.807L1366.85 521.419L1435.03 609.807L1366.85 698.286Z" fill="#FFE5B4"/>
<path d="M1135.5 819.612L1203.68 731.133L1271.86 819.612L1203.68 908L1135.5 819.612Z" fill="#E8FDDE"/>
<path d="M181.899 0H294.864L238.336 73.2772L181.899 0Z" fill="#FFE5B4"/>
<path d="M77.4899 105.046L145.669 193.525L77.4899 282.004L9.31015 193.525L77.4899 105.046Z" fill="#FFFDD6"/>
<path d="M77.4899 314.561L145.669 403.04L77.4899 491.519L9.31015 403.04L77.4899 314.561Z" fill="#FFFDD6"/>
<path d="M77.4899 521.419L145.669 609.898L77.4899 698.377L9.31015 609.898L77.4899 521.419Z" fill="#FFFDD6"/>
<path d="M77.4899 714.601L145.669 803.08L77.4899 891.558L9.31015 803.08L77.4899 714.601Z" fill="#FFFDD6"/>
<path d="M342.744 0H455.709L399.272 73.2772L342.744 0Z" fill="#E8FDDE"/>
<path d="M65.2012 89.116L4.12174 9.83098V168.492V218.557V377.127V427.283V456.152V506.217V585.854V635.919V664.878V714.944V794.58L65.2012 715.204L4.12174 635.919V585.854L65.2012 506.569L4.12174 427.283V377.127L65.2012 297.842L4.12174 218.557V168.492L65.2012 89.116Z" fill="#D9E7EB"/>
<path d="M503.681 0H616.646L560.118 73.2772L503.681 0Z" fill="#FFFDD6"/>
<path d="M825.464 0H938.429L881.901 73.2772L825.464 0Z" fill="#E8FDDE"/>
<path d="M664.527 0H777.492L721.055 73.2772L664.527 0Z" fill="#E8FDDE"/>
<path d="M986.309 0H1099.27L1042.84 73.2772L986.309 0Z" fill="#E8FDDE"/>
<path d="M1308.09 0H1421.06L1364.62 73.2772L1308.09 0Z" fill="#FFFDD6"/>
<path d="M1147.25 0H1260.21L1203.68 73.2772L1147.25 0Z" fill="#E8FDDE"/>
<path d="M628.389 193.525L560.118 282.003L491.939 193.525L560.118 105.046L628.389 193.525Z" fill="#E8FDDE"/>
<path d="M708.766 89.1161L640.587 177.595L572.407 89.1161L640.587 0.728271L708.766 89.1161Z" fill="#FFE5B4"/>
<path d="M467.452 193.525L399.273 282.003L331.093 193.525L399.273 105.046L467.452 193.525Z" fill="#FFE5B4"/>
<path d="M789.235 193.525L721.055 282.003L652.876 193.525L721.055 105.046L789.235 193.525Z" fill="#FFE5B4"/>
<path d="M547.921 89.1161L479.741 177.595L411.47 89.1161L479.741 0.728271L547.921 89.1161Z" fill="#E8FDDE"/>
<path d="M1030.55 89.1161L962.369 177.595L894.19 89.1161L962.369 0.728271L1030.55 89.1161Z" fill="#FFFDD6"/>
<path d="M869.703 89.1161L801.523 177.595L733.253 89.1161L801.523 0.728271L869.703 89.1161Z" fill="#D9E7EB"/>
<path d="M950.08 193.525L881.901 282.003L813.721 193.525L881.901 105.046L950.08 193.525Z" fill="#FFFDD6"/>
<path d="M157.958 626.816L226.138 715.204L157.958 803.682L89.6878 715.204L157.958 626.816Z" fill="#FFFDD6"/>
<path d="M1111.02 193.525L1042.84 282.003L974.658 193.525L1042.84 105.046L1111.02 193.525Z" fill="#D9E7EB"/>
<path d="M157.958 418.09L226.138 506.569L157.958 595.047L89.6878 506.569L157.958 418.09Z" fill="#FFFDD6"/>
<path d="M306.607 193.525L238.336 282.003L170.156 193.525L238.336 105.046L306.607 193.525Z" fill="#E8FDDE"/>
<path d="M157.958 209.363L226.138 297.842L157.958 386.321L89.6878 297.842L157.958 209.363Z" fill="#FFFDD6"/>
<path d="M157.958 0.728271L226.138 89.1161L157.958 177.595L89.6878 89.1161L157.958 0.728271Z" fill="#E8FDDE"/>
<path d="M386.984 89.1161L318.804 177.595L250.625 89.1161L318.804 0.728271L386.984 89.1161Z" fill="#FFFDD6"/>
<path d="M1432.8 193.525L1364.62 282.003L1296.44 193.525L1364.62 105.046L1432.8 193.525Z" fill="#E8FDDE"/>
<path d="M1352.33 89.1161L1284.15 177.595L1215.97 89.1161L1284.15 0.728271L1352.33 89.1161Z" fill="#E8FDDE"/>
<path d="M1191.49 89.1161L1123.21 177.595L1055.04 89.1161L1123.21 0.728271L1191.49 89.1161Z" fill="#FFFDD6"/>
<path d="M1271.86 193.525L1203.68 282.003L1135.5 193.525L1203.68 105.046L1271.86 193.525Z" fill="#FFFDD6"/>
<path d="M1447 3.27704V175.046L1445 177.595L1376.82 89.1161L1445 0.728271L1447 3.27704Z" fill="#D9E7EB"/>
<path d="M1445 595.047L1376.82 506.569L1445 418.09L1447 420.638V592.499L1445 595.047Z" fill="#FFFDD6"/>
<path d="M1445 803.682L1376.82 715.204L1445 626.816L1447 629.365V801.134L1445 803.682Z" fill="#FFE5B4"/>
<path d="M1445 386.321L1376.82 297.842L1445 209.363L1447 211.912V383.772L1445 386.321Z" fill="#FFE5B4"/>
<path d="M253.969 610.598C291.263 601.957 324.52 591.219 351.875 583.648C381.843 575.349 402.942 570.063 415.182 567.796C522.179 547.934 617.925 574.836 692.513 606.876C707.487 613.311 722.43 619.752 737.364 626.212C751.057 632.146 762.448 636.857 771.53 640.347C794.707 649.251 819.802 658.613 845.976 665.555C867.317 671.208 889.243 676.366 911.764 681.022C1008.54 701.024 1119.49 698.934 1219.1 684.469C1283.27 675.143 1344.77 661.852 1400.43 644.777C1417.24 639.626 1433.76 634.309 1450 628.846V902H-3V600.368C31.2665 610.512 67.6118 617.485 106.056 621.256C159.252 626.499 206.484 621.616 253.969 610.598Z" fill="#FFCB6A" stroke="white" stroke-width="6" stroke-miterlimit="10"/>
<g clip-path="url(#clip0_2_3)">
<path d="M-21.94 342.64H1438.06V758.14H-21.94V342.64Z" fill="#FFFEEB"/>
<path d="M-1.81018 758.14C-4.41018 760.785 -10.3201 759.29 -9.15015 752.001L0.859863 746.825L-1.81018 758.14Z" fill="#FFFEEB"/>
<path d="M-20.35 709.056C-15.5 700.473 -6.97002 690.581 2.22998 696.145C-7.39002 704.642 -3.37996 706.698 -14.83 715.842C-16 723.146 -11.6201 728.58 -7.93005 727.358C-10.5001 729.946 -5.73001 738.702 -12.01 742.627C-19.76 733.123 -20.07 721.09 -13.67 708.524C-15.89 705.821 -18.51 708.438 -20.35 709.056Z" fill="#FFFEEB"/>
<path d="M219.26 322.469L216.06 324.18C216.94 323.231 218.03 322.713 219.26 322.469Z" fill="#FFFEEB"/>
<path d="M526.62 314.575C524.28 314.23 523.3 312.807 523.18 311.499C525.35 312.433 527.14 313.31 526.62 314.575Z" fill="#FFFEEB"/>
<path d="M579.09 298.703C577.96 299.163 577.02 299.364 576 299.681C577.18 298.358 578.37 297.625 579.09 298.703Z" fill="#FFFEEB"/>
<path d="M219.26 322.469L227.47 317.94C228.05 322.641 223.27 321.433 219.26 322.469Z" fill="#FFFEEB"/>
<path d="M3.80005 610.716C3.32005 613.189 2.38003 615.245 1.16003 617.129C1.60003 615.101 1.95997 613.132 2.21997 611.105C2.75997 610.99 3.24005 610.889 3.80005 610.716Z" fill="#FFFEEB"/>
<path d="M83.77 310.794L81.27 310.766C80.54 309.127 79.85 307.143 79.2 304.914L83.77 310.794Z" fill="#FFFEEB"/>
<path d="M158.2 308.149C158.38 306.337 158.75 304.727 159.15 303.793C159.14 305.317 158.77 306.783 158.2 308.149Z" fill="#FFFEEB"/>
<path d="M98.5901 700.746C98.6701 701.623 98.5601 702.169 98.5801 702.917C97.9801 701.695 97.8001 700.832 98.5901 700.746Z" fill="#FFFEEB"/>
<path d="M675.13 283.046C674.94 283.19 674.88 283.19 674.7 283.276C672.18 281.882 673.61 282.126 675.13 283.046Z" fill="#FFFEEB"/>
<path d="M2.67994 606.835C2.77994 604.822 2.8499 602.766 2.7599 600.71C3.0499 603.499 3.00994 605.382 2.67994 606.835Z" fill="#FFFEEB"/>
<path d="M896.41 290.393C895.96 292.55 895.07 294.174 894.15 295.741C894.23 294.491 894.74 292.952 896.41 290.393Z" fill="#FFFEEB"/>
<path d="M731.56 307.789L735.64 306.15C734.02 307.257 732.71 307.646 731.56 307.789Z" fill="#FFFEEB"/>
<path d="M982 307.646C984.22 306.711 984.97 305.029 988 306.654C987.72 307.286 987.44 307.718 987.08 308.149C985.99 306.496 984.53 305.705 982 307.646Z" fill="#FFFEEB"/>
<path d="M1071.09 307.718C1070.62 308.652 1069.99 309.357 1069.45 310.176C1068.57 309.932 1067.54 309.745 1066.63 309.515L1071.09 307.718Z" fill="#FFFEEB"/>
<path d="M369.34 706.627C367.39 710.063 366.17 713.858 365.23 717.611C366.6 708.927 353.51 705.821 369.34 706.627Z" fill="#FFFEEB"/>
<path d="M-0.979858 610.644C1.16014 609.897 2.23018 608.804 2.68018 606.834C2.58018 608.301 2.41009 609.724 2.22009 611.09C0.960093 611.464 -0.229858 611.55 -0.979858 610.644Z" fill="#FFFEEB"/>
<path d="M985.63 404.088L999.78 402.276C995.82 403.47 990.68 404.088 985.63 404.088Z" fill="#FFFEEB"/>
<path d="M1008.47 708.38L1005.22 706.914C1006.48 706.626 1007.63 706.986 1008.47 708.38Z" fill="#FFFEEB"/>
<path d="M1041.78 404.088C1044.31 399.774 1046.98 397.273 1049.75 395.634C1050.34 396.597 1051.01 397.373 1051.39 398.782L1041.78 404.088Z" fill="#FFFEEB"/>
<path d="M271.97 688.713C285.46 688.367 278.3 704.441 281.17 713.657C297.27 718.229 288.62 701.839 294.1 693.615C304.15 697.871 311.86 712.622 319.36 711.989C319.92 709.344 321.38 708.381 319.67 705.059C330.3 717.826 351.22 705.692 363.6 721.722C364.52 720.299 364.98 718.948 365.22 717.726C363.21 725.777 362.91 733.957 363.32 739.78C369.37 740.053 374.54 749.93 376.82 739.421C373.11 739.723 372.81 735.496 371.07 732.218L377.4 736.775C383.1 721.694 368.75 731.556 368.75 720.385C381.1 725.288 395.5 737.782 404.97 733.526C406.95 718.761 382.83 728.552 395.47 715.425L380.82 721.075C392.01 697.77 371.92 722.686 382.21 697.77C401.49 693.486 403.77 705.304 423 700.991C427.33 709.2 421.57 713.125 425.9 721.349C453.23 736.1 447.41 684.212 467.51 703.88C472.71 713.729 474.73 732.405 489.03 722.528L484.15 705.821C502.81 704.168 494.8 729.831 514.35 718.588C510.88 712.032 499.68 713.053 502.51 711.069C515.17 697.885 511.47 720.544 521.2 720.544L523.22 705.749C543.09 708.079 564.97 718.761 586.98 721.449C585.76 717.05 581.99 712.42 587.14 707.906C614.89 715.296 646.38 706.095 673.15 697.324L683.38 710.091C685.76 709.948 687.79 704.326 685.22 701.853C695.65 697.008 685.76 709.962 690.77 714.965C696.71 715.857 698.61 707.633 694.85 703.794C713.26 714.62 747.3 727.114 766.69 713.441L762.91 709.646C778.01 704.47 779.96 735.812 793.96 723.908L791.27 721.651C824.05 716.115 860.28 727.804 885.29 708.539C890.05 726.927 917.74 700.344 919.84 725.978C938.56 713.269 933.2 708.682 959.56 700.142C966.6 698.963 970.05 716.159 978.76 718.833L978.97 705.433L990.79 719.494L997.08 703.463L1005.25 706.9C1002 707.69 998.34 712.924 998.83 716.777C1011.58 722.858 1029.92 707.446 1030.23 700.574L1060.4 711.917C1059.73 706.526 1054.68 704.671 1050.68 701.235C1066.79 714.908 1053.61 687.117 1068.36 699.654C1066.38 702.702 1069.43 707.633 1069.76 710.35C1077.12 702.241 1093.86 702.17 1106.26 705.591L1103.88 696.347C1126.26 693.989 1151.06 700.775 1176.18 700.602C1167.17 704.901 1169.24 720.932 1176.61 722.47L1179.55 708.309C1184.31 717.064 1171.86 713.643 1181.62 724.368C1191 722.729 1187.93 708.265 1182.54 703.636L1193.95 708.553C1194.62 704.326 1191.94 702.098 1191.25 696.706C1195.93 705.505 1210.94 682.487 1217.69 697.77L1218.33 693.558C1243.44 693.443 1254.83 698.316 1275.28 699.021C1275.68 711.256 1283.68 708.539 1289.77 718.416C1304.8 714.505 1321.48 704.901 1339.59 705.936C1352.32 712.018 1343.31 716.288 1349.03 723.563C1349.97 712.421 1368.05 713.47 1358.67 705.462C1369.54 706.368 1376.48 706.928 1384.14 708.395C1385.1 708.596 1386.07 708.783 1387.06 708.984C1387.55 709.099 1388.05 709.2 1388.56 709.315L1388.94 709.401L1389.13 709.444L1389.19 709.487L1389.43 709.674C1390.14 710.221 1390.88 710.796 1391.69 711.414C1393.45 712.751 1395.72 714.476 1399.34 716.734C1399.74 721.291 1398.39 723.275 1400.41 727.071C1402.08 727.991 1403.38 726.812 1403.66 724.756C1403.98 722.686 1403.29 719.724 1401.96 717.05L1400.93 715.9C1404.81 719.235 1408.53 719.94 1410.94 719.135C1410.37 713.973 1408.74 707.676 1406.81 702.529C1404.88 697.31 1402.65 693.227 1400.9 690.553C1400.49 689.949 1400.09 689.331 1399.69 688.741L1399.17 687.979L1399.05 687.807C1399.01 687.692 1398.97 687.275 1398.94 687.03L1398.73 685.305C1398.19 680.733 1397.86 676.291 1397.85 671.992C1397.82 663.394 1399.04 655.415 1402.27 648.356L1401.47 650.34L1409.88 613.707C1408.54 596.857 1404.06 623.814 1399.26 611.349C1412.19 571.826 1397.39 548.909 1406 516.373C1394.57 503.779 1394.97 481.437 1396.41 457.988C1397.13 446.27 1398.1 434.265 1397.99 423.066C1397.96 420.262 1397.86 417.516 1397.68 414.842L1397.61 413.835L1397.57 413.332C1397.56 413.174 1397.54 412.958 1397.53 412.987C1397.47 412.872 1397.41 412.757 1397.34 412.657C1397.2 412.441 1397.03 412.254 1396.84 412.067C1396.07 411.363 1394.85 411.003 1393.03 411.42C1394.82 410.744 1396.62 410.126 1398.41 409.594C1401.05 407.711 1400.28 407.164 1398.69 407.653C1397.11 408.056 1394.71 409.321 1394.09 409.45C1396.18 407.97 1397.39 407.51 1398.44 407.164C1399.49 406.791 1400.39 406.546 1401.85 404.936C1402.98 400.853 1403.47 396.295 1403.5 392.356C1400.33 392.298 1396.5 393.204 1393.3 394.685C1392.5 395.059 1391.73 395.461 1391 395.893C1390.64 396.108 1390.29 396.338 1389.95 396.568L1389.46 396.914L1389.22 397.086C1389.16 397.115 1389.19 397.144 1389.05 397.172L1388.53 397.259C1382.98 398.236 1377.43 399.3 1371.87 400.422C1349.63 404.893 1327.35 410.112 1305.41 413.002C1285.99 415.072 1294.39 372.961 1269.92 391.436L1276.87 405.799C1237.69 388.56 1196.75 406.388 1158.4 391.766C1160.69 395.088 1160.75 399.386 1164.5 399.343C1156.4 409.781 1134.54 399.846 1134.4 391.335C1128.43 392.298 1133.02 399.027 1129.34 403.369C1121.21 409.522 1108.94 390.041 1104.62 400.436C1103.89 402.118 1106.9 403.829 1108.39 404.634C1103.09 399.573 1083.72 405.928 1088.79 393.88C1074.39 399.631 1061.25 388.532 1049.77 395.648C1042.28 382.177 1025.13 402.118 1022.75 383.083C1023.78 402.765 997.51 398.941 988.41 389.696C991.46 395.648 980.5 395.864 984.06 404.088C973.67 403.815 964.15 400.163 965.96 390.056C946.82 413.591 927.49 371.107 916.72 401.27C885.86 390.703 857.31 383.543 829.55 378.942C830.55 398.553 860.23 380.897 859.04 401.485C832.71 393.406 817.52 376.57 791.41 381.3C784.65 383.988 795.25 389.811 797.53 393.161C771.22 385.081 746.66 394.944 723.26 384.262C723.32 386.088 725.85 388.086 728.24 389.581C723.62 388.949 717.51 392.457 718.03 383.543L722.53 385.958C729.9 373.019 704.21 358.929 703.38 352.086C711.21 377.634 680.26 358.512 692.7 390.803C689.66 389.121 685.86 384.909 686.55 378.942C682.05 380.667 680.61 384.161 685.18 390.947C668.66 386.088 674.53 376.613 659.55 376.814C659.6 381.142 662.62 382.81 664.17 387.885C656.59 379.474 648.97 371.049 636.32 374.701C637.08 377.303 635.61 380.696 639.39 380.624C617.66 379.316 602.35 358.21 578.52 366.333C585.55 385.095 570.41 372.515 569.15 388.747L556.33 383.902L561.47 376.024C550.24 376.297 540.32 364.479 530.67 369.798L539.01 376.484L517.97 373.407L529.88 367.253C518.52 358.886 531.1 346.708 516.15 351.237C519.19 352.891 504.92 351.439 499.07 360.999C499.07 360.999 499.11 360.999 499.11 361.042C493.56 355.867 487.84 350.432 479.54 354.458C477.38 359.648 481.27 372.415 479.87 375.865C474.39 362.293 453.58 372.113 446.64 357.649C448.95 361.043 449.08 369.568 448.31 371.308L443.71 360.281C438.51 363.803 437.75 365.514 438.59 372.314C422.94 374.327 443.56 351.712 424.99 360.597C426.45 361.488 425.75 363.142 428.79 364.809C410.14 369.439 392.76 357.808 375.62 363.242C370.56 379.575 390.59 367.239 384.8 381.027C360.09 378.065 333.64 361.445 309.73 365.298L314.19 363.487C310.88 340.426 296.38 374.888 284.29 364.019C287.25 365.715 288.17 376.814 287.37 374.241C270.99 377.95 253.89 368.576 229.08 361.316L232.15 367.239C222.5 372.53 206.74 370.287 196.31 372.99C193.22 367.081 187.25 368.03 190.88 359.418C158.74 393.161 129.57 341.331 101.06 369.439C104.47 369.511 109.19 374.629 106.47 374.643L82.1801 369.18C84.1001 359.13 85.36 363.098 90.47 355.277C87.4 349.325 80.54 344.696 74.52 344.696C85.4401 351.352 74.4199 360.841 69.71 366.448C70.5 363.372 68.88 359.979 69.28 356.844C56.5901 374.73 67.1499 336.63 49.83 348.664L50.75 353.94C44.27 351.237 38.29 344.264 31.3 345.774C28.4 357.405 38.2001 351.194 38.65 360.769C36.1901 360.597 33.76 359.145 31.34 357.233C30.13 356.269 28.9299 355.205 27.73 354.127C27.1 353.581 26.6 353.049 26.09 352.517C25.5699 351.985 25.04 351.467 24.5 350.964C22.34 348.98 19.99 347.37 17.77 346.996C15.5601 346.608 13.49 347.456 12.1899 350.346C14.4299 351.97 16.76 352.79 19.02 353.61C21.27 354.429 23.4601 355.248 25.1801 356.859C23.37 360.266 22.25 362.61 21.34 364.249C20.4399 365.873 19.75 366.793 19.0699 367.34C17.74 368.447 16.33 368.116 14.37 369.209L14.73 368.907C11.83 370.963 9.41003 373.033 7.47998 375.089C7.60999 373.853 7.80994 372.616 8.07996 371.38C3.39001 364.637 -0.809937 360.626 -4.35999 358.239C-7.92993 355.852 -10.85 355.09 -13.47 354.86C-13.6699 359.001 -13.2899 364.019 -13.83 368.289C-14.36 372.645 -15.8 376.196 -19.64 379.704C-16.37 376.57 -14.27 376.024 -12.8 376.153C-11.3401 376.325 -10.51 377.317 -9.81006 378.611C-8.41003 381.257 -7.5 385.11 -2.92004 388.244C-1.65002 391.177 -0.299927 394.34 1.06006 396.64C2.41003 398.955 3.77002 400.422 5.06006 400.551C3.21008 400.767 2.65002 401.874 2.68005 403.139C2.71008 404.418 3.32996 405.871 3.84998 407.236C4.35999 408.617 4.77002 409.91 4.38 411.319C4.28003 411.679 4.13 412.038 3.92004 412.412C3.81006 412.599 3.69006 412.8 3.56006 413.002C3.42004 413.289 3.27002 413.821 3.09998 414.224C2.41003 415.978 1.43994 417.818 0.0799561 419.802C3.02991 420.506 0.369995 431.836 7.78003 429.305C5.46008 443.927 2.6499 425.855 -1.05005 427.077C-11.12 449.62 11.1699 480.071 -2.65002 512.492C-8.33997 540.455 -18.29 545.631 -23.25 571.582C-18.53 580.337 -12.51 564.408 -12.51 564.408C-8.17004 578.54 -8.95996 589.165 -12.35 602.478C-9.77002 599.775 -7.59009 602.565 -4.29004 606.619C-5.06006 617.301 -15.03 613.764 -10.6801 627.854C-7.39001 625.439 -2.13 622.333 1.17004 617.186C-1.53992 629.781 -7.04993 642.217 -9.70996 655.242C-4.56995 658.693 -1.91003 647.378 1.44995 642.777C-0.869995 657.428 -3.21997 680.733 -11.35 685.262L-14.25 675.859C-14.64 681.193 -7.26001 678.605 -5.78003 674.666C0.599976 662.115 -8.6001 656.565 -11.5601 655.846L-13.45 665.134C-30.75 655.602 -10.67 627.854 -11.6801 609.164L-24.26 616.956L-13.8199 597.791C-17.1 593.723 -24.12 590.919 -26 600.149C-32.22 586.75 -21.5299 588.288 -28.46 576.786C-29.5399 575.521 -30.14 576.096 -30.65 577.261L-26.9 564.177C-29.54 566.737 -35.78 562.007 -33.97 570.043C-41.23 546.551 -24.5299 532.16 -34.0699 523.318L-34.84 525.287C-30.59 492.694 -25.6 522.139 -14.76 497.683L-37.54 481.236L-28.3101 478.029C-28.64 474.665 -29.3401 468.009 -33.03 469.245C-26.7101 456.723 -29.01 471.373 -23.04 464.112C-31.4501 447.924 -19.1 419.486 -33.8199 415.834C-26.7999 410.026 -28.41 431.318 -23.53 414.037C-31.4401 411.722 -30.77 405.109 -29.02 398.509C-28.15 395.16 -27 391.767 -26.53 388.1C-26.0601 384.405 -26.26 380.423 -28.08 375.017C-32.1599 374.73 -33.12 379.992 -33.97 382.321C-34.4 383.485 -34.79 383.96 -35.54 382.709C-36.29 381.444 -37.38 378.511 -39.2 372.415C-32.46 370.69 -33.02 362.725 -35.05 351.18C-36.0701 345.472 -37.45 338.93 -38.47 332.734C-39.49 326.566 -40.16 320.743 -39.74 317.091C-39.36 317.149 -39.02 317.221 -38.67 317.322C-35.8101 321.275 -32.5801 323.662 -29.15 325.1C-25.7101 326.537 -22.02 327.041 -17.97 327.199C-13.9299 327.371 -9.52002 327.199 -4.84998 327.328C-0.199951 327.457 4.69995 327.86 9.31995 329.183C8.75989 327.86 10.42 326.652 13.65 325.488C16.85 324.338 21.74 323.231 27.22 322.123C35.88 319.909 46.34 317.638 53.11 314.777L52.71 312.117C55.33 328.09 69.2999 325.071 79.47 328.378C79.0699 318.817 77.24 315.05 71.73 310.766L81.29 310.837C83.55 315.956 86.53 318.659 92.73 320.485L90.33 308.551C103.06 309.213 115.96 322.612 132.33 314.633C133.25 325.775 119.31 345.645 136.62 353.078C137.26 347.054 137.9 336.759 133.37 334.287C134.85 335.077 138.66 339.29 141.65 336.716L134.73 326.58C142.19 322.138 138.63 335.049 144.59 334.1C144.47 325.517 149 327.975 148.15 321.16C146.63 320.326 142.95 324.711 140.67 321.333C147.39 319.794 155.52 314.705 158.21 308.192C157.62 313.08 158.21 319.751 163.13 320.873C175.86 321.505 167.49 310.55 174.91 306.122C177.99 312.088 186.11 305.906 186.32 318.745C190.04 318.673 190.73 312.692 192.17 309.227C198.76 314.892 222.94 310.837 215.51 324.496L213.82 325.402C214.14 325.66 214.51 325.675 214.9 325.962C214.85 325.962 214.9 325.962 214.85 325.962H214.9C236.49 338.729 259.75 318.687 281.17 324.194L281.14 319.895C293.93 324.798 309.6 322.799 318.73 332.029C322.51 332.015 327.66 324.194 326.04 319.076C335.81 322.296 336.91 327.127 351.03 320.039C341.2 312.548 354.42 313.397 340.96 314.547C353.66 310.837 356.54 303.965 370.17 315.697C365.53 304.698 379.73 301.837 385.77 305.13L376.87 312.994C383.66 314.604 389.59 313.627 395.62 312.692L392.36 298.229C418.35 280.617 439.23 328.176 459.02 298.717C465.9 308.839 444.9 305.834 451.05 317.681C463 315.726 475.46 294.965 479.21 294.922C495.59 286.899 494.49 316.056 511.63 310.579C509.44 315.726 507.37 329.513 520.18 334.373C532.15 332.461 534.89 312.721 527.33 308.58C524.46 308.149 523.08 309.788 523.2 311.528C519.33 309.658 514.26 307.444 519 301.837L520.55 306.999C526.49 301.737 542.94 302.283 539.08 293.815C548.12 298.732 542.95 302.283 536.25 304.957C551.59 297.481 560.22 304.741 576.02 299.709C573.51 302.556 571.2 308.623 573.7 308.566C596.87 302.168 583.9 318.357 599.6 320.614C608.52 312.75 596.4 301.837 612.21 308.422C621.86 303.088 614.25 294.721 610.42 290.523C624.82 300.472 637.32 283.981 645.54 282.155L637.96 278C642.5 280.473 646.21 280.401 649.99 280.372L645.66 290.695C650.11 288.883 653.88 288.855 653.8 284.556C658.39 291.313 650.29 301.722 659.39 310.967C665.33 305.719 677.47 316.588 679.52 302.901C660.85 307.545 681.58 289.142 665.78 286.928C668.83 288.567 672.54 288.495 677.01 286.684C677.68 285.16 676.38 283.851 675.16 283.061C693.02 270.811 683.37 298.559 701.88 298.229C699.53 290.508 706.17 283.578 709.19 285.232C701.73 285.39 705.62 298.114 712.47 304.023C724.34 298.013 725.37 308.494 731.59 307.789L724.49 310.607C726.89 318.328 732.83 317.322 741.11 319.751C741.82 313.742 733.6 315.611 736.55 312.965C745.74 326.537 757.31 298.919 770.12 308.063C776.06 302.844 770.69 293.556 775.91 290.019C790.27 300.026 791.46 279.438 806.55 287.719C802.2 298.085 801.44 295.555 812.07 305.676L787.26 298.372L803.18 313.454C795.69 313.598 787.38 306.941 782.89 308.695C790.48 317.163 789.7 314.576 786.11 323.187C796.36 307.617 806.42 332.259 818.27 321.75L817.91 296.058C835.72 284.599 849.55 309.242 872.67 302.772L865.24 307.243C868.34 317.451 879.52 308.666 887 312.807C886.3 304.224 890.98 301.09 894.18 295.756C893.79 302.125 911.1 295.166 913.2 312.318L923.52 301.018C942.19 296.388 944.83 325.488 962.77 322.555C957.36 313.224 965.52 307.143 953.5 300.457C959.49 300.371 964.88 298.804 964.98 304.741C968.48 299.364 981.6 316.315 987.1 308.163C989.63 311.93 990.45 320.93 997.18 320.211C997.91 318.472 997.15 315.97 997.15 315.97C997.18 320.211 1007.68 321.735 1001.8 331.239C1020.26 304.454 1053.39 333.194 1069.46 310.176C1082.54 313.051 1098.29 315.812 1110.16 316.445C1109.4 313.871 1110.12 312.16 1107.88 313.051C1124.26 305.072 1117.95 337.708 1136.58 328.78C1146.1 314.906 1126.68 321.275 1132.62 316.013C1135.2 287.762 1155.11 319.866 1167.65 303.376L1164.61 301.708C1174.19 292.104 1188 312.405 1203.66 310.392C1203.66 310.392 1202.9 307.89 1203.57 306.122C1214.28 320.528 1234.56 325.301 1249.62 329.298C1244.93 318.242 1242.78 323.446 1245.64 312.218C1252.39 313.814 1243.66 330.261 1257.14 333.395C1261.52 327.342 1271.25 322.052 1272.54 310.061L1259.82 309.414C1266.33 293.901 1276.28 309.946 1282.98 307.243L1282.12 300.471C1301.61 302.671 1301.88 319.751 1322.82 318.529L1320.66 323.676C1332.1 340.584 1330.26 314.159 1341.67 326.739L1345.12 309.572C1352.67 313.713 1371.57 326.164 1385.12 329.398C1377.45 316.675 1361.6 310.162 1351.79 302.599C1359.28 302.47 1377.23 303.864 1381.13 312.333C1378.11 310.679 1374.31 306.467 1371.33 309.112C1375.92 315.855 1381.24 320.887 1387.27 324.208C1387.65 324.409 1388.03 324.611 1388.41 324.812C1388.79 324.999 1389.16 325.186 1389.68 325.373C1390.64 325.732 1391.61 326.063 1392.58 326.365C1394.52 326.983 1396.48 327.486 1398.48 327.874C1402.47 328.665 1406.61 329.025 1411.09 328.953C1411.98 323.504 1413.87 319.622 1416.89 316.818C1419.89 314.015 1423.96 312.275 1428.71 311.154C1433.46 310.032 1438.87 309.5 1444.55 309.112C1450.24 308.724 1456.18 308.451 1462.24 307.833C1463.15 323.734 1465.14 337.349 1471.36 341.044C1469.22 358.828 1468.38 374.313 1468.3 389.768C1468.26 397.474 1468.41 405.195 1468.68 412.987C1468.95 417.804 1469.35 422.649 1469.8 427.551C1471.61 447.147 1474.32 467.534 1473.64 489.632C1455.63 473.961 1473.13 502.543 1454.64 499.825C1453.45 510.119 1453.75 514.044 1454.96 514.964L1466.01 546.163C1471.39 553.553 1470.09 536.372 1474.24 537.321C1475.66 559.864 1482.08 546.781 1486.99 561.69C1480.37 558.628 1477.52 569.526 1480.04 582.379L1471.51 564.278C1461.67 595.778 1487.03 591.509 1477.28 623.268L1483.1 613.218C1481.38 621.37 1481.41 636.394 1480.01 651.375C1479.31 658.866 1478.25 666.356 1476.44 672.955C1475.53 676.262 1474.44 679.339 1473.11 682.099C1472.44 683.479 1471.72 684.773 1470.93 685.981C1470.53 686.585 1470.12 687.16 1469.69 687.706C1469.26 688.612 1468.81 689.46 1468.35 690.265C1469.42 692.623 1471.22 695.556 1472.91 696.462C1474.61 697.353 1476.21 696.117 1476.88 689.676C1477.51 709.358 1476.53 730.421 1475.01 749.887C1473.49 769.455 1471.42 787.383 1469.86 803.816C1458.4 802.062 1448.13 800.754 1439.1 800.596C1430.06 800.437 1422.23 801.444 1415.23 804.334C1416.85 806.505 1418.53 808.661 1420.28 810.832C1415.6 809.898 1411.18 806.835 1406.97 804.837C1402.71 802.838 1398.71 801.89 1393.6 805.168C1394.21 807.856 1397.44 811.652 1393.33 812.04C1392.74 811.767 1391.92 811.379 1390.91 810.918C1390.42 810.688 1389.88 810.444 1389.3 810.185L1389.09 810.085L1388.96 809.984L1388.7 809.783C1388.52 809.653 1388.34 809.509 1388.16 809.366C1386.67 808.259 1384.87 807.022 1382.94 805.973C1379.08 803.874 1374.72 802.537 1371.37 804.434L1377.09 811.752C1350.67 820.264 1336.54 793.939 1314.39 789.482C1314.45 808.632 1293.66 814.843 1283.28 817.949L1283.64 820.652C1252.87 823.024 1231.38 804.779 1202.89 797.274C1185.21 818.049 1142.98 805.973 1114.56 817.633C1118.91 814.153 1113.85 802.709 1108.8 800.797C1102.13 804.679 1090.36 787.512 1091.42 805.081L1093.8 804.736C1088.77 821.96 1075.07 817.374 1064.36 817.848L1062.59 794.874C1034.59 828.286 989.24 782.595 973.96 812.529C967.21 806.778 958.84 806.864 952.14 801.113L952.5 813.435C933.78 816.583 924.44 818.121 901.3 815.188L906.02 823.987C892.97 824.778 889.54 788.476 877.5 787.757L873.88 806.131C851.11 805.843 828.07 821.989 805.57 805.311C805.94 808.014 806.61 813.319 810.3 814.067C799.58 814.542 768.84 826.503 772.74 801.286C772.47 817.719 749.25 802.896 736.95 795.65L738.86 807.77C728.48 792.286 728.15 788.044 713.66 783.76C710.22 785.341 710.65 793.465 715.21 790.359C703.77 796.714 706.29 778.886 692.42 785.341L697.59 793.076C685.81 794.011 686.75 789.856 680.27 780.827C672.87 775.967 657.93 783.889 656.19 794.845C654.6 788.159 648.15 779.231 641.21 782.394C640.27 786.535 642.8 789.108 644.07 790.359C624.38 798.612 614.79 776.27 601.25 788.174C600.97 792.185 600.09 794.198 598.96 795.405C614.6 795.104 627.2 794.442 626.02 793.565C626.02 804.736 613.38 806.706 623.44 822.133C613.3 813.708 595.95 795.406 583.64 800.668C583.04 801.746 582.46 802.81 582.01 804.535L583.28 805.786C580.44 806.893 577.89 805.858 575.5 803.974C571.57 805.815 569.07 807.166 565.3 807.339C563.84 816.583 550.81 812.313 544.51 812.773C545.03 800.552 536.78 802.508 544.51 792.415C543.51 793.292 545.7 793.882 549.89 794.385C550.84 794.744 551.95 794.931 552.58 795.65C552.46 795.305 552.31 794.931 552.15 794.572C556.29 794.931 561.68 795.204 567.81 795.391C562.83 789.18 557.63 783.961 550.67 790.747C547.44 782.883 543.88 774.817 541.87 771.022C533.25 788.073 516.63 797.289 514.32 807.799C495.08 800.941 469 803.27 456.91 780.309C451.44 777.362 450.62 786.894 448.58 790.503C451.74 792.803 455.49 792.458 457.2 795.75C446.27 789.856 424.8 793.465 422.19 777.42C408.41 784.666 429.94 792.185 411 789.568L413.56 794.471C376.3 820.12 352.98 753.51 311.68 786.434C314.54 784.421 315.97 783.487 316.56 780.798C269.46 795.319 219.51 767.183 173.04 790.201C159.83 794.845 158.4 784.594 150.34 776.801L147.48 789.942L133.7 774.789C114.15 763.689 99.85 807.022 75.11 786.032L78.3 777.19C69.41 778.857 50.15 771.971 51.63 782.15C50.72 780.54 48.72 772.948 45.24 777.563L44.97 784.436L23.14 772.661C6.21997 777.635 25.7899 799.934 1.08997 801.271C-8.09009 798.626 -25.0499 781.258 -21.61 776.672C-17.9 776.327 -12.14 772.388 -11.87 765.501L-20.27 761.921C-21.79 741.678 -28.25 720.932 -7.64001 706.799L6.71997 719.178L11.35 709.358L-0.73999 708.74C6.12 699.495 10.47 707.676 15.33 713.283C16.48 708.064 18.5 704.412 21.35 702.457L35.45 721.794C37.1599 713.873 29.13 706.08 38.59 701.709C45.2 710.695 32.2599 719.465 43.1899 725.36C50.0599 716.173 48.0599 708.654 56.12 716.532C57.25 711.313 55.5499 707.992 52.35 705.706C59.53 711.96 71.3501 708.352 75.05 719.12C82.2101 707.762 99.2899 722.068 98.58 702.903C100.84 707.489 111.22 717.956 117.82 718.746C105.77 695.8 142.5 717.395 139.32 692.796C148.23 713.427 171.52 701.954 187.31 713.413C186.43 711.774 184.69 708.452 183.3 709.502C192.19 707.791 194.77 701.566 200.48 697.669C201.62 714.706 215.46 718.603 222.92 729.112C233.81 712.679 216.3 709.099 219.72 693.313C219.17 707.13 238.65 707.101 234.94 718.603C243.27 708.424 242.12 713.671 246.41 699.539C247.87 720.845 254.17 703.162 261.08 716.245C273.14 705.735 264.18 696.289 277.43 702.759C283.75 696.26 271.97 688.713 271.97 688.713ZM586.98 725.561C586.98 725.446 586.98 725.36 586.98 725.317C584.27 725.029 581.95 724.785 580.48 724.627C581.83 724.785 583.7 725.029 586.98 725.561ZM613.45 725.748C610.23 726.223 606.21 726.309 601.97 726.223C601.04 730.435 602.05 734.791 604.71 734.561C603.26 731.743 609.5 729.314 613.45 725.748ZM557.45 810.473C561.64 812.198 563.04 809.797 563.62 807.295C561.64 807.08 559.33 806.663 556.29 805.829C556.17 805.369 555.92 804.851 555.8 804.334C556.2 806.663 556.66 808.848 557.45 810.473Z" fill="#FFFEEB"/>
<path d="M549.92 794.428C549.32 794.155 548.98 793.652 548.19 793.537C549.05 792.458 549.86 791.538 550.69 790.791C551.2 792.084 551.72 793.364 552.17 794.629C551.42 794.543 550.63 794.514 549.92 794.428Z" fill="#FFFEEB"/>
<path d="M215.51 324.453L216.07 324.18C215.61 324.654 215.18 325.143 214.9 325.919C215.27 325.33 215.27 324.941 215.51 324.453Z" fill="#FFFEEB"/>
<path d="M978.99 702.342L978.95 705.447L976.64 702.73L978.99 702.342Z" fill="#FFFEEB"/>
<path d="M69.71 366.42C69.43 367.498 68.88 368.605 67.8 369.539C67.88 368.749 68.7 367.642 69.71 366.42Z" fill="#FFFEEB"/>
<path d="M14.3701 369.151C12.9401 370.603 11.6901 372.055 10.6301 373.508C11.7801 371.035 13.1901 369.856 14.3701 369.151Z" fill="#FFFEEB"/>
<path d="M0.719971 390.472C-0.770029 389.667 -1.89005 388.905 -2.93005 388.172C-2.95005 388.115 -2.94998 388.1 -2.97998 388.043C-1.73998 388.819 -0.510029 389.639 0.719971 390.472Z" fill="#FFFEEB"/>
<path d="M728.22 389.581C728.87 389.653 729.51 389.811 730.09 390.127C734.48 392.5 731.5 391.565 728.22 389.581Z" fill="#FFFEEB"/>
<path d="M499.1 361.028C501.53 363.242 503.93 365.428 506.47 366.808C502.39 367.728 499.22 367.972 499.1 361.028Z" fill="#FFFEEB"/>
<path d="M984.07 404.303C984.04 404.231 984.07 404.203 984.04 404.088C984.59 404.131 985.07 404.088 985.62 404.088L984.07 404.303Z" fill="#FFFEEB"/>
<path d="M517.12 366.578C513.04 369.022 509.63 368.49 506.47 366.793C509.81 365.974 513.75 364.723 517.12 366.578Z" fill="#FFFEEB"/>
<path d="M4.58997 672.783L4.93994 676.132C4.37994 676.075 3.91995 676.276 3.56995 676.535L4.58997 672.783Z" fill="#FFFEEB"/>
<path d="M3.56982 676.535L2.56982 680.259C2.55982 678.548 2.62982 677.067 3.56982 676.535Z" fill="#FFFEEB"/>
<path d="M0.42021 688.109L2.56022 680.273C2.59022 682.976 2.85021 686.326 0.42021 688.109Z" fill="#FFFEEB"/>
<path d="M0.650024 580.625L3.73999 579.576C3.09999 580.136 2.10002 580.51 0.650024 580.625Z" fill="#FFFEEB"/>
<path d="M1.53998 552.618C2.23998 559.304 8.11988 569.382 6.18988 578.698L3.73993 579.561C8.31993 575.19 -3.66002 558.959 1.53998 552.618Z" fill="#FFFEEB"/>
<path d="M329.71 314.705L328.83 303.577C335.59 305.173 328.89 307.89 329.71 314.705Z" fill="#FFFEEB"/>
<path d="M399.63 372.199L393.05 379.115L389.92 368.921L399.63 372.199Z" fill="#FFFEEB"/>
<path d="M440.93 292.952L437.98 291.371L449.26 295.396L440.93 292.952Z" fill="#FFFEEB"/>
<path d="M1055.25 296.906L1053.21 310.607C1048.63 308.149 1047.67 292.765 1055.25 296.906Z" fill="#FFFEEB"/>
<path d="M1320.45 310.866C1323.34 304.023 1330.8 299.609 1335.4 306.337C1329.43 307.286 1323.48 312.62 1320.45 310.866Z" fill="#FFFEEB"/>
<path d="M1049.33 812.227L1054.66 816.813L1044.61 812.989L1049.33 812.227Z" fill="#FFFEEB"/>
</g>
<defs>
<clipPath id="clip0_2_3">
<rect width="1534.96" height="897.63" fill="white" transform="matrix(-1 0 0 1 1487 0)"/>
</clipPath>
</defs>
</svg>
