<svg width="303" height="140" viewBox="0 0 303 140" fill="none" xmlns="http://www.w3.org/2000/svg">
<path d="M4.08002 14.06L124.53 0.559998L120.7 88.2L8.15002 113.98L4.08002 14.06Z" fill="#750C03"/>
<path d="M12.5 89.5C12.5 89.5 9.93001 74.72 18.71 72.72C27.49 70.72 30.97 53.82 30.97 48C30.97 42.18 39.55 33.94 44.49 33.77C49.43 33.6 73.82 30.38 79.51 28.86C85.2 27.35 98.14 28.22 107.3 20.51C116.46 12.8 124.28 5.96997 124.28 5.96997L121.85 79.1L20.64 97.14L12.5 89.5Z" fill="#690B03"/>
<path d="M8.15 113.98L4.07999 113.35L0 13.8L4.07999 14.06L8.15 113.98Z" fill="#A6330A"/>
<path d="M0 13.8L119.94 0L124.53 0.559998L4.07999 14.06L0 13.8Z" fill="#BF6239"/>
<path d="M14.26 94.75C14.26 94.75 14.26 88.93 14.26 83.54C14.26 78.15 14.12 73.18 22.21 71.62C30.3 70.06 126.95 55.16 126.95 55.16L272.05 72.46C272.05 72.46 199.41 86.13 193.32 87.68C187.23 89.23 185.81 91.85 185.41 97.96C185.02 104.07 185.41 116.61 185.41 116.61L14.26 94.75Z" fill="#FFB826"/>
<path d="M66.53 84.65C66.53 84.65 27.63 79.59 24.73 78.46C21.93 77.37 17.07 75.75 19.28 74.05C21.49 72.35 39.92 69.11 41.84 68.42C31.72 70.02 24.22 71.24 22.21 71.63C14.12 73.19 14.26 78.16 14.26 83.55C14.26 88.94 14.26 94.76 14.26 94.76L61.96 100.85L62.26 100.88L66.53 84.65Z" fill="#FF8C00"/>
<path d="M42.94 69.27C40.93 69.65 38.5 73.02 39.72 74.45C40.94 75.88 41.99 78.36 47.61 77.65C53.23 76.93 58.08 75.31 64.97 74.55C71.86 73.79 89.6 69.1 91.12 69.28C92.64 69.46 103.78 69.88 108.09 67.6C112.39 65.31 123.92 62.65 129.16 61.6C134.4 60.55 144.01 57.21 144.01 57.21L126.94 55.17L49.7 67.02L42.94 69.27Z" fill="#FF8C00"/>
<path d="M186.24 89.19C185.24 90.23 181.19 93.3 180.82 98.27C180.45 103.24 181.23 113.72 181.23 113.72L175.79 113.97L175.12 84.89L186.98 82.74L186.24 89.19Z" fill="#FF8C00"/>
<path d="M9.54999 90.35L185.52 113.32V137.61L9.54999 114.15V90.35Z" fill="#A6330A"/>
<path d="M59.22 113.98C59.17 116.06 59.62 117.58 62.08 118.05C64.54 118.52 70.31 119.44 71.21 118.05C72.11 116.66 73.42 115.36 74.82 115.31C76.22 115.26 88.57 118.65 93.44 118.79C98.31 118.93 111.1 120.28 115.07 120.13C119.03 119.98 137.95 121.53 143.57 124.04C149.19 126.55 162.19 129.46 167.05 130.06C171.92 130.66 179.54 132.52 180.8 131.06C182.05 129.6 180.95 112.73 180.95 112.73L171.72 111.75L62.15 103.17L59.22 113.98Z" fill="#750C03"/>
<path d="M180.45 112.87C176.56 130.87 151.03 130.14 116.53 128.41L185.53 137.61V113.32L180.52 112.67C180.49 112.73 180.46 112.8 180.45 112.87Z" fill="#750C03"/>
<path d="M9.54999 90.35L12.5 89.5L188.4 112.27L185.52 113.32L9.54999 90.35Z" fill="#BF6239"/>
<path d="M177.4 129.17C177.4 129.17 178.79 130.02 178.79 126.71C178.79 123.4 177.85 108.8 177.93 103.08C178.01 97.36 179.33 92.56 181.59 90.34C183.83 88.15 190.43 87.13 190.43 87.13L189.46 83.31L172.98 85.63L170.61 119.4L177.4 129.17Z" fill="#9BB84B"/>
<path d="M92.96 116.88C103.29 118.46 113.57 118.66 123.99 119.05C134.2 119.43 143.86 120.73 153.67 123.6C161.41 125.87 169.34 128.24 177.4 128.5C177.4 128.5 175.73 110.59 175.91 103.16C176.03 98.03 176.69 89.71 182.56 87.13C188.42 84.55 260.91 70.47 260.91 70.47L244.72 66.95L178.33 59.21C178.33 59.21 93.88 74.69 82.62 77.04C71.36 79.39 69.48 85.26 69.48 92.17V113.02C77.38 113.3 85.21 115.7 92.96 116.88Z" fill="#B1D155"/>
<path d="M188.13 60.36L178.34 59.22C178.34 59.22 93.89 74.7 82.63 77.05C71.37 79.4 69.49 85.27 69.49 92.18V113.03C70.28 113.06 71.06 113.12 71.85 113.19C71.77 104.8 71.65 92.02 71.9 89.89C72.24 87.03 73.8 84.37 81.33 82.26C88.86 80.15 107.93 77.04 119.47 74.63C131.01 72.22 156.4 66.2 161.82 65.1C167.24 64 180.28 61.75 182.09 61.12C182.85 60.85 185.41 60.58 188.13 60.36Z" fill="#789132"/>
<path d="M92.96 116.88C103.29 118.46 113.57 118.66 123.99 119.05C134.2 119.43 143.86 120.73 153.67 123.6C161.41 125.87 169.59 129 177.66 129.25C177.66 129.25 176.11 117.37 175.95 101.4C175.94 100.81 171.37 97.86 168.25 97.41C158.2 95.96 148.34 95.73 138.57 92.71C128.18 89.49 118.9 90.81 108.28 91.46C95.39 92.24 82.76 87.93 70.08 86.8C69.65 88.48 69.5 90.29 69.5 92.18V113.03C77.38 113.3 85.21 115.7 92.96 116.88Z" fill="#A2C04E"/>
<path d="M95.59 117.24C92.4 114.84 89.63 111.21 83.44 107.65C76.82 103.84 72.62 100.97 69.5 100.64V113.03C77.39 113.3 85.22 115.7 92.97 116.88C93.84 117.02 94.72 117.13 95.59 117.24Z" fill="#9BB84B"/>
<path d="M150.56 116.14C145.9 108.55 136.2 109.9 129.09 115.42C127.02 117.02 124.31 118.16 121.35 118.96C122.23 118.99 123.11 119.02 124 119.05C134.21 119.43 143.87 120.73 153.68 123.6C155.54 124.14 157.41 124.69 159.29 125.22C155.79 123.29 153.27 120.56 150.56 116.14Z" fill="#9BB84B"/>
<path d="M72.84 87.09C71.92 86.98 71 86.87 70.08 86.79C69.65 88.47 69.5 90.28 69.5 92.17V113.02C70.29 113.05 71.07 113.11 71.86 113.18C72.85 103.66 72.85 98.96 72.5 94.83C72.25 91.92 71.92 89.21 72.84 87.09Z" fill="#687E2B"/>
<path d="M188.3 68.32L302.38 54.47L300.85 114.07L188.3 139.85V68.32Z" fill="#750C03"/>
<path d="M301.55 86.66C295.08 99.96 279.75 112.92 247.39 121.87C213.79 131.16 194.95 135.54 188.3 137.01V139.84L300.85 114.06L301.55 86.66Z" fill="#690B03"/>
<path d="M188.3 139.85L184.23 139.22V68.06L188.3 68.32V139.85Z" fill="#A6330A"/>
<path d="M184.23 68.06L297.79 53.9L302.38 54.47L188.3 68.32L184.23 68.06Z" fill="#BF6239"/>
<path d="M70.51 113.98C70.4 116.11 70.62 117.29 68.04 117.08C65.47 116.87 62.25 116.39 60.43 116.14C58.61 115.9 58.31 114.61 58.39 113.32C58.48 112.03 58.19 93.58 58.38 89.5C58.56 85.42 58.56 78.03 68.61 74.68C78.66 71.33 143.03 60.42 147.36 59.51C154.63 57.98 164.03 56.76 166.67 56.71C170.3 56.63 179.26 57.19 182.62 58.07C184.84 58.65 185.41 60.04 185.41 60.04C185.41 60.04 182.68 59.77 182.13 59.66C181.75 59.66 170.59 62.31 152.13 65.84C141.59 67.85 85.33 79.47 79.15 81.19C72.97 82.91 70.65 85.65 70.45 90.03C70.26 94.09 70.51 113.98 70.51 113.98Z" fill="#789132"/>
<path d="M182.62 58.07C179.26 57.19 170.3 56.63 166.67 56.71C164.03 56.77 154.62 57.98 147.36 59.51C143.03 60.42 78.66 71.33 68.61 74.68C62.19 76.82 59.88 80.61 59 84.13C61.45 87.18 69.19 86.49 71.04 87.01C72.08 84.33 74.54 82.47 79.15 81.19C85.33 79.47 141.59 67.85 152.13 65.84C170.6 62.31 181.75 59.66 182.13 59.66C182.68 59.77 185.41 60.04 185.41 60.04C185.41 60.04 184.84 58.65 182.62 58.07Z" fill="#97B349"/>
<path d="M96.26 65.35C96.85 62.99 94.25 63.08 90.52 53.7C86.79 44.32 87.13 37.74 86.25 34.63C85.37 31.52 80.56 27.62 83.46 26.59C86.36 25.56 90.1 27.08 94.41 24.91C98.72 22.74 106.24 21.99 114.76 22.05C122.73 22.11 125.84 19.09 127.74 18.51C129.63 17.94 128.86 21.06 129.27 23.11C129.75 25.51 132.52 31.62 133.62 38.13C134.72 44.64 135.12 50.27 136.39 52.46C137.66 54.65 139.5 57.85 136.27 57.84C133.04 57.82 122.01 61.23 116.15 62.03C110.29 62.84 104.12 63.75 101.08 65.48C98.04 67.22 95.79 67.27 96.26 65.35Z" fill="#FF6600"/>
<path d="M93.87 60.47C95.66 63.29 96.65 63.8 96.26 65.35C95.78 67.27 98.03 67.21 101.08 65.48C104.12 63.75 110.29 62.83 116.15 62.03C122.01 61.22 133.04 57.82 136.27 57.84C139.5 57.86 137.66 54.65 136.39 52.46C135.12 50.27 134.72 44.64 133.62 38.13C132.67 32.54 130.5 27.26 129.6 24.35C128.65 27.79 127.67 31.92 126.21 36.9C124.08 44.18 114.6 50.69 108.61 53.89C103.96 56.38 96.78 58.2 93.87 60.47Z" fill="#FF4400"/>
<path d="M41.88 76.56C42.49 74.12 42.51 73.38 38.65 63.69C34.79 54 34.09 47.36 33.18 44.16C32.27 40.95 28.37 36.78 31.37 35.72C34.37 34.66 37.88 35.19 42.33 32.96C46.78 30.72 56.09 30.9 64.3 30.49C71.18 30.15 74.56 28.23 76.52 27.64C78.48 27.05 78.51 29.87 78.39 32.18C78.28 34.33 82.67 40.65 83.81 47.37C84.95 54.09 85.04 59.79 86.35 62.05C87.66 64.31 89.56 67.61 86.23 67.6C82.9 67.58 74.02 71.08 64.29 72.94C58.3 74.08 52.18 73.94 49.04 75.72C45.91 77.5 41.38 78.54 41.88 76.56Z" fill="#FF6600"/>
<path d="M83.82 47.37C82.89 41.89 79.8 36.68 78.75 33.77C78.3 35.68 77.88 37.7 77.87 40.26C77.82 47.33 81.07 56.68 72.59 59.83C64.1 62.98 56.51 67.6 52.37 70.13C48.52 72.48 44.87 72.94 41.98 72.99C42.34 74.59 42.18 75.38 41.89 76.57C41.4 78.55 45.92 77.51 49.06 75.73C52.2 73.95 58.32 74.09 64.31 72.95C74.04 71.09 82.91 67.6 86.25 67.61C89.58 67.63 87.68 64.32 86.37 62.06C85.05 59.79 84.96 54.08 83.82 47.37Z" fill="#FF4400"/>
<path d="M136.13 51.93C131.25 53.56 124.33 55.24 116.46 56.07C108.56 56.9 100.26 58.33 93.32 59.56C92.67 58.44 91.93 57.02 91.13 55.16C98.41 53.87 107.39 52.29 115.97 51.39C123.7 50.57 130.42 48.92 135.01 47.35C135.33 49.28 135.67 50.87 136.13 51.93ZM110.56 29.91C114.17 29.53 117.75 29.41 120.91 29.3C124.72 29.17 128.16 29.04 131.01 28.51C130.38 26.67 129.82 25.11 129.49 23.99C127.11 24.36 124.09 24.47 120.75 24.59C117.51 24.7 113.84 24.83 110.07 25.23C104.27 25.84 98.44 27.94 93.28 29.78C90.42 30.81 87.68 31.79 85.18 32.44C85.65 33.19 86.06 33.93 86.26 34.64C86.44 35.26 86.56 36.03 86.68 36.92C89.28 36.22 92.02 35.24 94.87 34.22C100.01 32.37 105.33 30.46 110.56 29.91ZM112.95 43.1C115.36 42.85 117.68 42.64 119.89 42.45C125.63 41.95 130.36 41.52 133.99 40.51C133.87 39.74 133.75 38.94 133.61 38.14C133.48 37.37 133.33 36.61 133.16 35.86C129.92 36.84 125.03 37.27 119.48 37.76C117.25 37.96 114.89 38.16 112.46 38.42C106.57 39.04 100.47 40.85 95.09 42.45C92.52 43.21 90.06 43.93 87.79 44.49C88.07 45.9 88.44 47.43 88.92 49.07C91.3 48.49 93.81 47.75 96.43 46.97C101.87 45.35 107.5 43.68 112.95 43.1Z" fill="#FF8C00"/>
<path d="M123.45 42.13C127.61 41.74 131.15 41.3 134 40.51C133.88 39.74 133.76 38.94 133.62 38.14C133.49 37.37 133.34 36.61 133.17 35.86C131.31 36.42 128.9 36.8 126.15 37.11C125.6 38.84 124.66 40.53 123.45 42.13Z" fill="#FF6600"/>
<path d="M131.01 28.5C130.44 26.85 129.94 25.44 129.61 24.35C129.23 25.74 128.84 27.23 128.41 28.86C129.31 28.77 130.19 28.65 131.01 28.5Z" fill="#FF6600"/>
<path d="M96.31 59.03C102.58 57.94 109.67 56.78 116.47 56.07C124.34 55.24 131.26 53.56 136.14 51.93C135.68 50.86 135.34 49.27 135.02 47.33C130.43 48.9 123.71 50.56 115.98 51.37C114.73 51.5 113.47 51.65 112.21 51.81C110.94 52.6 109.72 53.3 108.62 53.89C104.97 55.84 99.79 57.37 96.31 59.03Z" fill="#FF6600"/>
<path d="M86.3 61.94C81.75 63.68 75.55 65.89 65.41 67.54C59.15 68.56 52.39 69.46 46.44 70.26C44.69 70.5 43 70.72 41.38 70.94C41 69.79 40.46 68.32 39.72 66.41C41.64 66.14 43.68 65.87 45.81 65.58C51.74 64.78 58.46 63.88 64.66 62.88C74.75 61.24 80.55 59.1 85.15 57.33C85.44 59.35 85.77 60.94 86.3 61.94ZM62.68 53.83C66.51 53.2 70.24 52.84 73.54 52.52C77.74 52.11 81.44 51.74 84.35 50.94C84.2 49.79 84.02 48.6 83.82 47.36C83.76 46.99 83.68 46.62 83.6 46.24C81.08 47.02 77.35 47.39 73.08 47.81C69.71 48.14 65.89 48.51 61.92 49.16C56.15 50.11 50.39 51.62 45.31 52.96C41.93 53.85 38.69 54.7 35.81 55.3C36.21 56.7 36.67 58.21 37.23 59.81C40.12 59.2 43.25 58.38 46.52 57.52C51.73 56.16 57.13 54.74 62.68 53.83ZM59.53 41.44C68.6 40.08 76.22 39.29 81.15 39.2C80.36 37.41 79.58 35.82 79.05 34.55C73.97 34.78 66.95 35.55 58.83 36.77C53.69 37.54 48.47 38.87 43.42 40.15C39.52 41.14 35.83 42.07 32.59 42.63C32.83 43.15 33.05 43.66 33.18 44.15C33.41 44.95 33.62 45.97 33.87 47.19C37.16 46.59 40.77 45.69 44.58 44.72C49.52 43.47 54.62 42.18 59.53 41.44Z" fill="#FF8C00"/>
<path d="M81.15 39.2C80.36 37.41 79.58 35.82 79.05 34.55C78.89 34.56 78.72 34.57 78.55 34.58C78.23 36.02 77.97 37.55 77.89 39.34C79.07 39.28 80.18 39.22 81.15 39.2Z" fill="#FF6600"/>
<path d="M84.35 50.94C84.2 49.79 84.02 48.6 83.82 47.36C83.76 46.99 83.68 46.62 83.6 46.24C82.19 46.68 80.38 46.99 78.33 47.25C78.45 48.88 78.5 50.49 78.35 52C80.58 51.74 82.61 51.42 84.35 50.94Z" fill="#FF6600"/>
<path d="M65.85 62.68C61 64.97 56.78 67.45 53.78 69.27C57.65 68.73 61.63 68.16 65.42 67.54C75.56 65.89 81.76 63.68 86.31 61.94C85.77 60.95 85.44 59.35 85.16 57.33C80.74 59.03 75.21 61.07 65.85 62.68Z" fill="#FF6600"/>
</svg>
