<svg width="188" height="295" viewBox="0 0 188 295" fill="none" xmlns="http://www.w3.org/2000/svg">
<path d="M11.7216 163.62C11.5216 164.26 11.3816 164.88 11.2216 165.51C10.9016 166.76 10.5815 168.01 10.3315 169.25C9.76155 171.74 9.27154 174.23 8.82154 176.72C8.32154 179.21 7.96152 181.7 7.55152 184.19C7.13152 186.68 6.78154 189.17 6.45154 191.67C5.04154 201.64 4.07153 211.63 3.19153 221.63C1.72153 239.26 0.321539 272.91 0.0115388 280.83C-0.0284612 281.76 0.721553 282.53 1.65155 282.53C2.51155 282.53 3.23157 281.87 3.29157 281.01C3.80157 273.46 6.11153 239.7 8.06153 222.12C9.20153 212.22 10.4316 202.33 12.0916 192.54C12.4816 190.09 12.8915 187.64 13.3715 185.21C13.8415 182.78 14.2615 180.33 14.8115 177.93C15.3215 175.51 15.8516 173.11 16.4716 170.74C16.7516 169.54 17.0816 168.38 17.4116 167.22C17.5716 166.64 17.7316 166.05 17.9216 165.5C18.1016 164.95 18.2815 164.34 18.4415 163.92L12.3315 161.65C12.0715 162.38 11.9116 162.97 11.7216 163.62Z" fill="#A6330A"/>
<path d="M53.5015 175.85C53.3015 176.49 53.1615 177.11 53.0015 177.74C52.6815 178.99 52.3616 180.24 52.1116 181.48C51.5416 183.97 51.0516 186.46 50.6016 188.95C50.1016 191.44 49.7415 193.93 49.3315 196.42C48.9115 198.91 48.5616 201.4 48.2316 203.9C46.8216 213.87 45.8516 223.86 44.9716 233.86C43.5016 251.49 42.1016 285.14 41.7916 293.06C41.7516 293.99 42.5015 294.76 43.4315 294.76C44.2915 294.76 45.0115 294.1 45.0715 293.24C45.5815 285.69 47.8916 251.93 49.8416 234.35C50.9816 224.45 52.2115 214.56 53.8715 204.77C54.2615 202.32 54.6716 199.87 55.1516 197.44C55.6216 195.01 56.0416 192.56 56.5916 190.16C57.1016 187.74 57.6315 185.34 58.2515 182.97C58.5315 181.77 58.8615 180.61 59.1915 179.45C59.3515 178.87 59.5115 178.28 59.7015 177.73C59.8815 177.18 60.0616 176.57 60.2216 176.15L54.1116 173.88C53.8516 174.61 53.7015 175.2 53.5015 175.85Z" fill="#A6330A"/>
<path d="M131.572 222.9C133.522 240.48 135.842 274.23 136.342 281.79C136.402 282.65 137.112 283.31 137.982 283.31C138.912 283.31 139.662 282.54 139.622 281.61C139.312 273.69 137.912 240.04 136.442 222.41C135.562 212.42 134.592 202.42 133.182 192.45C132.862 189.96 132.512 187.46 132.082 184.97C131.672 182.48 131.312 179.99 130.812 177.5C130.362 175.01 129.872 172.52 129.302 170.03C129.042 168.79 128.732 167.54 128.412 166.29C128.252 165.66 128.102 165.04 127.912 164.4C127.722 163.75 127.562 163.16 127.302 162.41L121.192 164.68C121.352 165.1 121.542 165.71 121.712 166.26C121.902 166.81 122.052 167.4 122.222 167.98C122.552 169.14 122.882 170.31 123.162 171.5C123.772 173.87 124.312 176.27 124.822 178.69C125.372 181.09 125.792 183.54 126.262 185.97C126.742 188.4 127.152 190.85 127.542 193.3C129.202 203.11 130.432 213 131.572 222.9Z" fill="#A6330A"/>
<path d="M95.1016 213.3C97.0516 230.88 99.3715 264.63 99.8715 272.19C99.9315 273.05 100.642 273.71 101.512 273.71C102.442 273.71 103.192 272.94 103.152 272.01C102.842 264.09 101.442 230.44 99.9716 212.81C99.0916 202.82 98.1215 192.82 96.7115 182.85C96.3915 180.36 96.0316 177.86 95.6116 175.37C95.2016 172.88 94.8416 170.39 94.3416 167.9C93.8916 165.41 93.4015 162.92 92.8315 160.43C92.5715 159.19 92.2615 157.94 91.9315 156.69C91.7715 156.06 91.6215 155.44 91.4315 154.8C91.2415 154.15 91.0815 153.56 90.8215 152.81L84.7115 155.08C84.8715 155.5 85.0616 156.11 85.2316 156.66C85.4216 157.21 85.5715 157.8 85.7415 158.38C86.0715 159.54 86.4015 160.71 86.6815 161.9C87.2915 164.27 87.8316 166.67 88.3416 169.09C88.8916 171.49 89.3116 173.94 89.7816 176.37C90.2616 178.8 90.6715 181.25 91.0615 183.7C92.7315 193.51 93.9616 203.4 95.1016 213.3Z" fill="#A6330A"/>
<path d="M136.442 222.42C135.562 212.43 134.592 202.43 133.182 192.46C132.862 189.97 132.512 187.47 132.082 184.98C131.672 182.49 131.312 180 130.812 177.51C130.362 175.02 129.872 172.53 129.302 170.04C129.042 168.8 128.732 167.55 128.412 166.3C128.252 165.67 128.102 165.05 127.912 164.41C127.722 163.76 127.562 163.17 127.302 162.42L126.932 162.56C126.942 162.61 126.962 162.65 126.972 162.7C127.172 163.34 127.312 163.96 127.472 164.59C127.792 165.84 125.652 165.71 125.912 166.95C126.482 169.44 129.932 182.85 131.122 190.88C132.652 201.18 133.772 210.89 134.652 220.88C136.122 238.51 138.362 271.98 138.682 279.9C138.722 280.83 137.972 281.6 137.042 281.6C136.782 281.6 136.542 281.52 136.322 281.41C136.332 281.54 136.342 281.67 136.352 281.79C136.412 282.65 137.122 283.31 137.992 283.31C138.922 283.31 139.672 282.54 139.632 281.61C139.312 273.7 137.912 240.05 136.442 222.42Z" fill="#750C03"/>
<path d="M58.7615 176C58.5715 176.55 58.4215 177.14 58.2515 177.72C57.9215 178.88 57.5915 180.05 57.3115 181.24C56.7015 183.61 56.1616 186.01 55.6516 188.43C55.1016 190.83 54.6816 193.28 54.2116 195.71C53.7316 198.14 53.3215 200.59 52.9315 203.04C51.2715 212.83 50.0416 222.72 48.9016 232.62C46.9516 250.2 44.6315 283.95 44.1315 291.51C44.0715 292.37 43.3615 293.03 42.4915 293.03C42.2415 293.03 42.0115 292.97 41.8015 292.87C41.8015 292.93 41.7916 292.99 41.7916 293.05C41.7516 293.98 42.5015 294.75 43.4315 294.75C44.2915 294.75 45.0115 294.09 45.0715 293.23C45.5815 285.68 47.8916 251.92 49.8416 234.34C50.9816 224.44 52.2115 214.55 53.8715 204.76C54.2615 202.31 54.6716 199.86 55.1516 197.43C55.6216 195 56.0416 192.55 56.5916 190.15C57.1016 187.73 57.6315 185.33 58.2515 182.96C58.5315 181.76 58.8615 180.6 59.1915 179.44C59.3515 178.86 59.5115 178.27 59.7015 177.72C59.8815 177.17 60.0616 176.56 60.2216 176.14L58.8715 175.64C58.8415 175.75 58.8015 175.88 58.7615 176Z" fill="#750C03"/>
<path d="M16.9716 163.76C16.7816 164.31 16.6316 164.9 16.4616 165.48C16.1316 166.64 15.8015 167.81 15.5215 169C14.9115 171.37 14.3716 173.77 13.8616 176.19C13.3116 178.59 12.8916 181.04 12.4216 183.47C11.9416 185.9 11.5315 188.35 11.1415 190.8C9.48154 200.59 8.25158 210.48 7.11158 220.38C5.16158 237.96 2.84156 271.71 2.34156 279.27C2.28156 280.13 1.57154 280.79 0.701541 280.79C0.451541 280.79 0.221539 280.73 0.0115388 280.63C0.0115388 280.69 0.001529 280.75 0.001529 280.81C-0.038471 281.74 0.711544 282.51 1.64154 282.51C2.50154 282.51 3.22156 281.85 3.28156 280.99C3.79156 273.44 6.10152 239.68 8.05152 222.1C9.19152 212.2 10.4215 202.31 12.0815 192.52C12.4715 190.07 12.8816 187.62 13.3616 185.19C13.8316 182.76 14.2515 180.31 14.8015 177.91C15.3115 175.49 15.8416 173.09 16.4616 170.72C16.7416 169.52 17.0716 168.36 17.4016 167.2C17.5616 166.62 17.7216 166.03 17.9116 165.48C18.0916 164.93 18.2715 164.32 18.4315 163.9L17.0815 163.4C17.0515 163.52 17.0116 163.64 16.9716 163.76Z" fill="#750C03"/>
<path d="M96.7115 182.86C96.3915 180.37 96.0316 177.87 95.6116 175.38C95.2016 172.89 94.8416 170.4 94.3416 167.91C93.8916 165.42 93.4015 162.93 92.8315 160.44C92.5715 159.2 92.2615 157.95 91.9315 156.7C91.7715 156.07 91.6215 155.45 91.4315 154.81C91.2415 154.16 91.0815 153.57 90.8215 152.82L90.4515 152.96C90.4615 153.01 90.4815 153.05 90.4915 153.1C90.6915 153.74 90.8315 154.36 90.9915 154.99C91.3115 156.24 91.6315 157.49 91.8815 158.73C92.4515 161.22 92.9415 163.71 93.3915 166.2C93.8915 168.69 92.5515 170.62 92.9915 173.09C94.8415 183.46 97.4515 201.44 98.3315 211.43C99.9415 229.58 101.882 262.38 102.192 270.3C102.232 271.23 101.482 272 100.552 272C100.292 272 100.052 271.92 99.8315 271.81C99.8415 271.94 99.8516 272.07 99.8616 272.19C99.9216 273.05 100.632 273.71 101.502 273.71C102.432 273.71 103.182 272.94 103.142 272.01C102.832 264.09 101.432 230.44 99.9615 212.81C99.0915 202.83 98.1215 192.83 96.7115 182.86Z" fill="#750C03"/>
<path d="M12.8815 186.07C13.2515 184.07 14.3515 179.89 14.8015 177.92C15.3115 175.5 15.8415 173.1 16.4615 170.73C16.7415 169.53 17.0716 168.37 17.4016 167.21C17.4116 167.18 17.4116 167.16 17.4216 167.13H10.8015C10.6315 167.84 10.4615 168.55 10.3115 169.25C9.74152 171.74 9.25151 174.23 8.80151 176.72C8.32151 179.1 7.97154 181.49 7.58154 183.88L12.8815 186.07Z" fill="#750C03"/>
<path d="M54.9016 197.06C55.2016 195.48 56.2316 191.71 56.5916 190.15C57.1016 187.73 57.6315 185.33 58.2515 182.96C58.5315 181.76 58.8615 180.6 59.1915 179.44C59.3515 178.86 59.5115 178.27 59.7015 177.72C59.8815 177.17 60.0616 176.56 60.2216 176.14L54.1116 173.87C53.8516 174.62 53.6915 175.22 53.5015 175.86C53.3015 176.5 53.1615 177.12 53.0015 177.75C52.6815 179 52.3616 180.25 52.1116 181.49C51.5416 183.98 51.0516 186.47 50.6016 188.96C50.2016 190.93 49.8915 192.9 49.5815 194.88L54.9016 197.06Z" fill="#750C03"/>
<path d="M122.222 168C122.552 169.16 122.882 170.33 123.162 171.52C123.772 173.89 124.312 176.29 124.822 178.71C125.152 180.16 125.442 181.62 125.712 183.08L131.452 185.48C131.152 183.62 131.192 179.36 130.812 177.51C130.362 175.02 129.872 172.53 129.302 170.04C129.042 168.8 128.732 167.55 128.412 166.3C128.252 165.67 128.102 165.05 127.912 164.41C127.722 163.76 127.562 163.17 127.302 162.42L121.192 164.69C121.352 165.11 121.542 165.72 121.712 166.27C121.902 166.83 122.062 167.42 122.222 168Z" fill="#750C03"/>
<path d="M89.7916 176.39C90.2716 178.82 90.6815 181.27 91.0715 183.72C91.0815 183.77 91.0916 183.82 91.0916 183.87L96.5115 186.27C96.4615 185.93 96.7515 183.19 96.7015 182.86C96.3815 180.37 96.0216 177.87 95.6016 175.38C95.2216 173.06 94.8716 170.74 94.4216 168.43H88.1815C88.2315 168.66 88.2815 168.88 88.3315 169.11C88.9015 171.51 89.3216 173.96 89.7916 176.39Z" fill="#750C03"/>
<path d="M112.302 0.529999C99.3515 3.18 94.6216 14.7 89.3516 30.06C74.6016 73.06 82.6215 147.61 82.6215 147.61C82.6215 147.61 75.5515 146.06 65.3015 145.58C52.5015 144.98 31.2415 142.58 14.7415 147.63C-3.14849 153.1 -0.848453 170.78 7.40155 174.98H7.39154L51.7916 183.46L130.912 162.06C130.912 162.06 134.132 98.59 139.362 68.53C144.592 38.47 178.322 11.9 178.322 11.9L174.632 0C174.632 0.01 115.182 -0.0600012 112.302 0.529999Z" fill="#A2C04E"/>
<path d="M127.362 0.450012C125.322 1.19001 123.372 2.23999 121.592 3.48999C118.742 5.45999 116.292 7.95001 114.132 10.64C109.792 16.03 106.562 22.2 104.002 28.57C101.452 34.96 99.5516 41.6 98.1616 48.31C96.7316 55.02 95.7916 61.81 95.1016 68.61C93.8116 82.22 93.4916 95.88 93.8616 109.51C94.0816 116.32 94.4316 123.12 94.9116 129.92C95.3716 136.53 95.8515 143.14 96.5115 149.74C92.2615 149.22 93.9515 149.61 89.7415 149.06C87.5515 148.78 78.5015 148.12 71.1215 147.76C62.5515 147.34 53.6016 146.96 44.6716 147.26C40.2316 147.41 35.0715 148.15 30.6415 149.09C26.3115 150.01 22.4216 151.52 19.2316 154.91C16.0016 158.22 14.2915 162.99 14.8215 167.54C15.2115 171.11 16.9316 174.6 19.6716 176.85C19.8816 176.81 20.1015 176.8 20.3315 176.78C17.6715 174.42 16.1415 170.92 16.0015 167.44C15.7415 163.21 17.4416 159 20.4716 156.14C23.5116 153.23 27.5015 151.59 31.6915 150.63C35.8815 149.61 40.1815 148.99 44.5115 148.66C53.1715 148 61.9215 148.2 70.6915 148.51L77.2816 148.76C79.4916 148.83 81.6716 148.88 83.8516 149C88.2116 149.27 92.5916 149.75 96.8616 150.6L97.4016 150.71L97.3516 150.17C96.0216 136.66 95.6215 123.04 95.7715 109.47C95.8715 95.9 96.3315 82.33 97.8315 68.88C99.3215 55.45 101.502 42.03 106.082 29.37C107.252 26.22 108.582 23.13 110.102 20.14C111.602 17.14 113.312 14.24 115.292 11.54C117.272 8.84001 119.542 6.35 122.152 4.25C124.002 2.77 126.072 1.52999 128.282 0.649994C127.962 0.609994 127.652 0.540012 127.362 0.450012Z" fill="#97B349"/>
<path d="M150.072 0.320007C147.822 1.02001 145.642 2 143.632 3.28C140.662 5.2 138.102 7.72 135.932 10.5C133.752 13.29 131.952 16.34 130.402 19.5C128.862 22.67 127.622 25.96 126.432 29.22C121.642 42.33 118.242 55.92 115.932 69.66C113.682 83.41 112.292 97.29 111.782 111.19C111.572 118.14 111.522 125.09 111.632 132.04C111.722 138.81 111.932 145.56 112.362 152.32C108.182 151.37 104.202 151.47 99.9515 150.87C95.5215 150.19 91.0515 150.14 86.6315 149.78C82.1915 149.46 77.8516 149.4 73.3616 149.38C68.8816 149.36 64.5015 149.52 59.7515 149.9C55.2615 150.26 50.6115 151 46.4515 152.14C42.1615 153.32 37.5915 154.94 34.5015 158.52C31.3615 162.03 29.9515 166.98 30.7715 171.54C31.1715 173.82 32.0915 175.99 33.4415 177.84C34.0115 178.6 34.6715 179.3 35.4015 179.91C35.6415 179.86 35.9015 179.84 36.1615 179.83C35.3615 179.12 34.6615 178.29 34.0715 177.4C32.9215 175.57 32.1915 173.49 31.9615 171.37C31.4115 167.12 32.8715 162.75 35.8115 159.73C37.2615 158.2 39.0316 157 40.9216 156.03C42.8216 155.06 44.8615 154.43 46.9915 153.83C51.2115 152.63 55.5215 151.75 59.8815 151.21C68.5915 150.07 77.4415 150.06 86.3215 150.35C90.7815 150.5 95.2015 150.53 99.6015 151.04C104.002 151.54 108.392 152.25 112.702 153.24L113.242 153.36L113.202 152.8C112.262 138.99 112.642 125.08 113.662 111.28C114.662 97.48 116.192 83.71 118.642 70.12C121.052 56.52 124.232 43.06 128.542 29.95C129.632 26.67 130.762 23.43 132.162 20.31C133.532 17.18 135.142 14.15 137.122 11.38C139.092 8.61 141.442 6.1 144.182 4.06C146.212 2.59 148.462 1.43001 150.832 0.570007C150.562 0.500007 150.312 0.420007 150.072 0.320007Z" fill="#97B349"/>
<path d="M3.06152 164.34C3.91152 159.74 10.0215 155.29 18.4415 155.61C26.2715 155.91 53.6815 160.17 53.6815 160.17L60.7615 156.8C60.7615 156.8 46.3616 154.41 41.7816 152.82C37.3816 151.3 35.1716 146.94 43.4016 146.59C30.1416 144.12 14.8915 148.49 9.21155 151.95C3.53155 155.41 1.80151 161.98 1.80151 161.98L3.06152 164.34Z" fill="#B9DB59"/>
<path d="M31.7115 150.63C33.7515 150.13 35.8115 149.73 37.8915 149.41C37.8015 148.8 38.0415 148.23 38.6915 147.75C35.9515 148.08 33.1816 148.54 30.6516 149.08C26.3216 150 22.4315 151.51 19.2415 154.9C19.0215 155.13 18.8315 155.37 18.6215 155.61C19.2715 155.64 20.0316 155.69 20.9016 155.77C23.8816 153.1 27.7015 151.55 31.7115 150.63Z" fill="#B1D155"/>
<path d="M43.0115 153.2C40.2715 154.17 37.6116 155.48 35.4716 157.51C36.3016 157.62 37.1215 157.74 37.9415 157.85C38.8815 157.16 39.8716 156.55 40.9116 156.01C42.6016 155.14 44.4116 154.55 46.2916 154.01C45.0716 153.74 43.9415 153.47 43.0115 153.2Z" fill="#B1D155"/>
<path d="M82.6115 147.61C82.6115 147.61 75.5415 146.06 65.2915 145.58C52.4915 144.98 31.2315 142.58 14.7315 147.63C-3.15846 153.1 -0.858489 170.78 7.39151 174.98H7.3815L7.4415 174.99C3.9015 172.57 2.44149 170 2.93149 165.25C3.83149 156.59 11.5615 148.62 33.3915 147.06C55.2315 145.5 82.6115 147.61 82.6115 147.61Z" fill="#B9DB59"/>
<path d="M3.90155 171.97C4.87155 173.26 6.05154 174.3 7.39154 174.98H7.38153L54.5115 184.45L62.8815 180.45L48.1716 179.94L3.90155 171.97Z" fill="#789132"/>
<path d="M18.4016 174.58L17.4315 174.41C18.3615 175.73 19.5215 176.86 20.8815 177.7L21.8215 177.89C20.4515 177.03 19.3016 175.89 18.4016 174.58Z" fill="#687E2B"/>
<path d="M34.0916 177.41L33.0515 177.22C33.1815 177.42 33.3015 177.63 33.4415 177.83C34.3515 179.05 35.4916 180.12 36.7916 180.89L38.1415 181.16C36.4815 180.29 35.1016 178.96 34.0916 177.41Z" fill="#687E2B"/>
<path d="M131.922 154.79L82.6116 147.61L130.412 158.06L131.922 154.79Z" fill="#789132"/>
<path d="M174.632 0.0100219C174.632 0.0100219 115.182 -0.059989 112.302 0.530011C99.3515 3.18001 94.6216 14.7 89.3516 30.06C74.6016 73.06 82.6215 147.61 82.6215 147.61C82.6215 147.61 81.9015 92.01 89.7515 56.5C96.4815 26.01 111.962 1.43 175.072 1.43L174.632 0.0100219Z" fill="#B9DB59"/>
<path d="M127.392 154.99C127.392 154.99 131.292 74.01 148.412 29.44C154.232 14.28 157.892 3.06999 170.842 0.429986C183.772 -2.21001 190.632 8.22 185.122 19.76C178.582 33.48 165.412 25.57 154.512 48.05C125.362 108.17 144.232 168.05 129.722 170.51C115.212 172.97 64.2415 183.32 57.4415 184.47C45.4715 186.5 38.3315 163.23 59.5015 156.32C77.7615 150.36 97.2615 152.36 110.062 152.97C120.322 153.44 127.392 154.99 127.392 154.99Z" fill="#687E2B"/>
<path d="M62.7515 157.83C83.1815 149.97 127.922 155.63 127.922 155.63C127.922 155.63 132.402 75.7 149.522 31.13C155.342 15.97 162.342 6.48999 171.332 4.14999C177.062 2.65999 182.922 2.57999 185.642 5.98999C183.262 1.49999 177.982 -1.02 170.852 0.440002C157.902 3.09 154.242 14.29 148.422 29.45C131.302 74.02 127.402 155 127.402 155C127.402 155 120.332 153.45 110.082 152.97C97.2815 152.37 77.7815 150.36 59.5215 156.32C44.5315 161.21 43.7415 174.3 48.7915 180.81C45.0515 173.93 49.2115 163.03 62.7515 157.83Z" fill="#789132"/>
<path d="M181.002 1.42001C183.272 7.37001 180.592 12.01 177.562 17.34C171.432 28.11 164.002 24.16 152.672 46.43C123.422 103.9 139.522 156.28 126.322 162.79C105.332 173.14 60.0515 179.5 53.2615 180.66C51.4315 180.97 49.7115 180.68 48.1815 179.96C50.2515 183.15 53.5915 185.12 57.4415 184.47C64.2415 183.32 115.212 172.97 129.722 170.51C144.232 168.05 125.372 108.16 154.512 48.05C165.412 25.57 178.582 33.48 185.122 19.76C188.902 11.83 186.852 4.43001 181.002 1.42001Z" fill="#556B18"/>
<path d="M111.672 17.23C112.772 15.27 113.972 13.36 115.302 11.55C117.282 8.85002 119.552 6.36001 122.162 4.26001C124.402 2.47001 126.952 1.03001 129.712 0.140015C129.222 0.140015 128.742 0.149994 128.262 0.149994C125.892 0.899994 123.632 2.06 121.582 3.5C118.732 5.47 116.282 7.95999 114.122 10.65C111.592 13.79 109.452 17.2 107.582 20.76C108.862 19.53 110.222 18.35 111.672 17.23Z" fill="#B1D155"/>
<path d="M152.522 0.0200195C152.022 0.0200195 151.512 0.0200195 151.002 0.0200195C148.422 0.73002 145.922 1.82002 143.642 3.27002C143.132 3.60002 142.652 3.97002 142.172 4.33002C142.932 4.17002 143.682 4.01 144.472 3.87C146.892 2.16 149.632 0.88002 152.522 0.0200195Z" fill="#B1D155"/>
</svg>
