<svg width="143" height="186" viewBox="0 0 143 186" fill="none" xmlns="http://www.w3.org/2000/svg">
<path d="M54.2474 172.913H46.3979C45.3746 172.913 44.551 173.736 44.551 174.76V178.179H56.0943V174.76C56.0943 173.749 55.2707 172.913 54.2474 172.913Z" fill="#FF6600"/>
<path d="M53.3363 173.1C51.7889 175.359 49.2556 176.956 45.6865 176.956C45.2872 176.956 44.9254 176.881 44.551 176.844V178.179H56.0943V176.806C56.0943 175.059 54.9337 173.599 53.3363 173.1Z" fill="#FF4400"/>
<path d="M73.9397 84.7217H69.0729V180.575H73.9397V84.7217Z" fill="#FFB826"/>
<path d="M73.9272 115.895V84.7217H69.0729V112.513L73.9272 115.895Z" fill="#FF6600"/>
<path d="M114.335 185.941H28.665C27.9288 185.941 27.3297 185.342 27.3297 184.606V177.979C27.3297 177.243 27.9288 176.644 28.665 176.644H114.335C115.071 176.644 115.67 177.243 115.67 177.979V184.606C115.67 185.342 115.071 185.941 114.335 185.941Z" fill="#A6330A"/>
<path d="M115.333 178.179C114.872 177.281 113.948 176.644 112.863 176.644H30.1375C29.0518 176.644 28.1283 177.281 27.6666 178.179H115.333Z" fill="#BF6239"/>
<path d="M27.3297 182.821V183.133C27.3297 184.681 28.5901 185.941 30.1375 185.941H112.863C114.41 185.941 115.67 184.681 115.67 183.133V182.821H27.3297Z" fill="#750C03"/>
<path d="M141.827 100.408H1.17316L6.42688 4.56738H136.573L141.827 100.408Z" fill="#FFB826"/>
<path d="M36.14 4.56738H23.4985L18.2446 100.408H30.8861L36.14 4.56738Z" fill="#FFC830"/>
<path d="M50.1666 4.56738H45.4869L40.233 100.408H44.9128L50.1666 4.56738Z" fill="#FFC830"/>
<path d="M141.827 99.8965L136.573 4.56738H120.313V23.6981C120.313 70.6825 107.759 93.3199 100.121 99.8965H141.827Z" fill="#FF8C00"/>
<path d="M136.573 9.07238L6.42688 6.38934V4.56738H136.573V9.07238Z" fill="#FF6600"/>
<path d="M136.923 5.50336H6.07737C5.62811 5.50336 5.25385 5.12898 5.25385 4.67972V0.823636C5.25385 0.374382 5.62811 0 6.07737 0H136.923C137.372 0 137.746 0.374382 137.746 0.823636V4.67972C137.746 5.14146 137.384 5.50336 136.923 5.50336Z" fill="#A6330A"/>
<path d="M142.176 104.751H0.823674C0.374421 104.751 0 104.377 0 103.927V100.071C0 99.6221 0.374421 99.2477 0.823674 99.2477H142.176C142.626 99.2477 143 99.6221 143 100.071V103.927C143 104.389 142.638 104.751 142.176 104.751Z" fill="#A6330A"/>
<path d="M5.25385 3.76868C5.25385 4.72958 6.02758 5.50331 6.98848 5.50331H136.011C136.972 5.50331 137.746 4.72958 137.746 3.76868H5.25385Z" fill="#750C03"/>
<path d="M0.0374146 103.228C0.149728 104.077 0.848549 104.751 1.73458 104.751H141.265C142.151 104.751 142.85 104.077 142.962 103.228H0.0374146Z" fill="#750C03"/>
</svg>
