<svg width="284" height="146" viewBox="0 0 284 146" fill="none" xmlns="http://www.w3.org/2000/svg">
<path d="M47.1496 146H44.3364C42.9874 146 42.0332 144.706 42.4445 143.429L45.9815 132.327H54.7995L48.9757 144.854C48.6302 145.542 47.9228 146 47.1496 146Z" fill="#A6330A"/>
<path d="M212.979 146H215.793C217.142 146 218.096 144.706 217.684 143.429L214.147 132.327H205.329L211.153 144.854C211.499 145.542 212.206 146 212.979 146Z" fill="#A6330A"/>
<path d="M75.9066 141.644H73.0934C71.7444 141.644 70.7902 140.351 71.2015 139.073L74.7386 127.971H83.5565L77.7327 140.498C77.3872 141.202 76.6798 141.644 75.9066 141.644Z" fill="#A6330A"/>
<path d="M241.736 141.644H244.55C245.899 141.644 246.853 140.351 246.441 139.073L242.904 127.971H234.086L239.91 140.498C240.272 141.202 240.963 141.644 241.736 141.644Z" fill="#A6330A"/>
<path d="M76.7292 138.402C76.4001 139.106 75.7092 139.548 74.936 139.548H72.1228C71.7773 139.548 71.4483 139.45 71.1686 139.303C70.9383 140.498 71.8431 141.644 73.1099 141.644H75.923C76.6963 141.644 77.4037 141.202 77.7162 140.498L83.54 127.971H81.5988L76.7292 138.402Z" fill="#750C03"/>
<path d="M47.9722 142.758C47.6432 143.462 46.9522 143.904 46.179 143.904H43.3658C43.0203 143.904 42.6913 143.806 42.4116 143.658C42.1813 144.854 43.0861 146 44.3529 146H47.1661C47.9393 146 48.6467 145.558 48.9593 144.854L54.7831 132.327H52.8253L47.9722 142.758Z" fill="#750C03"/>
<path d="M214.164 132.327H212.568L215.431 141.317C215.842 142.594 214.888 143.888 213.539 143.888H210.742L211.186 144.837C211.515 145.542 212.206 145.984 212.979 145.984H215.793C217.142 145.984 218.096 144.69 217.685 143.413L214.164 132.327Z" fill="#750C03"/>
<path d="M246.442 139.073L242.904 127.971H241.309L244.171 136.961C244.583 138.238 243.628 139.532 242.279 139.532H239.483L239.927 140.482C240.256 141.186 240.947 141.628 241.72 141.628H244.533C245.899 141.644 246.853 140.351 246.442 139.073Z" fill="#750C03"/>
<path d="M53.5986 134.898L54.783 132.327H45.9816L45.159 134.898H53.5986Z" fill="#750C03"/>
<path d="M214.97 134.898L214.164 132.327H205.346L206.547 134.898H214.97Z" fill="#750C03"/>
<path d="M243.678 130.378L242.921 127.987H234.103L235.222 130.378H243.678Z" fill="#750C03"/>
<path d="M55.5891 133.031H45.1754C43.2177 133.031 41.6384 131.459 41.6384 129.51V127.987H59.1426V129.51C59.1262 131.443 57.5468 133.031 55.5891 133.031Z" fill="#590902"/>
<path d="M204.54 133.031H214.954C216.911 133.031 218.491 131.459 218.491 129.51V127.987H200.986V129.51C201.003 131.443 202.582 133.031 204.54 133.031Z" fill="#590902"/>
<path d="M233.297 128.675H243.711C245.668 128.675 247.248 127.103 247.248 125.155V123.632H229.743V125.155C229.76 127.103 231.339 128.675 233.297 128.675Z" fill="#590902"/>
<path d="M219.149 126.268L218.869 130.526L252.117 124.909C253.762 124.909 255.111 123.583 255.111 121.929V120.635L219.149 126.268Z" fill="#690B03"/>
<path d="M218.507 130.542H41.6549C40.0097 130.542 38.6607 129.216 38.6607 127.562V126.268H221.501V127.562C221.485 129.216 220.152 130.542 218.507 130.542Z" fill="#7D0D03"/>
<path d="M221.435 128.151C221.468 127.955 221.501 127.775 221.501 127.562V126.268H38.6607V127.562C38.6607 127.758 38.6772 127.955 38.7265 128.151H221.435Z" fill="#690B03"/>
<path d="M18.3926 26.0855L23.1471 35.0754V122.6L26.5854 122.027C37.8053 119.964 47.2648 113.545 48.4164 102.41L56.2308 26.0691H18.3926V26.0855Z" fill="#0A677D"/>
<path d="M38.8581 57.1817C27.7534 61.8977 25.0883 64.2393 22.8016 67.629L23.1471 122.6L26.5854 122.027C37.8052 119.964 47.2648 113.545 48.4164 102.41L56.2308 26.0691H53.8453C50.8347 37.6626 48.2354 53.2189 38.8581 57.1817Z" fill="#0A677D"/>
<path d="M227.555 63.6662H251.426L261.396 10.7584C262.07 7.17226 259.8 5.109 256.279 3.668C252.973 2.30887 248.498 0.523987 248.498 0.523987L227.555 63.6662Z" fill="#0A677D"/>
<path d="M227.555 63.6662H251.426L261.396 10.7584C257.053 22.4175 243.431 24.6772 243.431 24.6772L227.555 63.6662Z" fill="#0A677D"/>
<path d="M48.3341 61.8977H241.374L251.821 6.91027C252.496 3.32414 249.732 0 246.063 0H64.95C62.1368 0 59.7185 1.99776 59.192 4.74877L48.3341 61.8977Z" fill="#14ADD1"/>
<path d="M92.3086 18.2418C92.3086 19.5682 91.2228 20.6489 89.8903 20.6489C88.5577 20.6489 87.4719 19.5682 87.4719 18.2418C87.4719 16.9154 88.5577 15.8347 89.8903 15.8347C91.2228 15.851 92.3086 16.9154 92.3086 18.2418Z" fill="#0A677D"/>
<path d="M91.8645 9.74316L88.9032 16.9973L88.0148 26.8223L90.499 17.2266L91.8645 9.74316Z" fill="#0A677D"/>
<path d="M80.8256 17.8488L89.3309 16.6534L98.083 18.3564L89.3309 18.5202L80.8256 17.8488Z" fill="#0A677D"/>
<path d="M91.9796 17.7342C91.9796 19.0606 90.8938 20.1414 89.5612 20.1414C88.2287 20.1414 87.1429 19.0606 87.1429 17.7342C87.1429 16.4078 88.2287 15.3271 89.5612 15.3271C90.8938 15.3435 91.9796 16.4078 91.9796 17.7342Z" fill="#0A7791"/>
<path d="M154.709 18.2418C154.709 19.5682 153.623 20.6489 152.29 20.6489C150.958 20.6489 149.872 19.5682 149.872 18.2418C149.872 16.9154 150.958 15.8347 152.29 15.8347C153.639 15.851 154.709 16.9154 154.709 18.2418Z" fill="#0A677D"/>
<path d="M154.264 9.74316L151.303 16.9973L150.415 26.8223L152.915 17.2266L154.264 9.74316Z" fill="#0A677D"/>
<path d="M143.242 17.8488L151.731 16.6534L160.483 18.3564L151.731 18.5202L143.242 17.8488Z" fill="#0A677D"/>
<path d="M154.38 17.7342C154.38 19.0606 153.294 20.1414 151.961 20.1414C150.629 20.1414 149.543 19.0606 149.543 17.7342C149.543 16.4078 150.629 15.3271 151.961 15.3271C153.294 15.3271 154.38 16.4078 154.38 17.7342Z" fill="#0A7791"/>
<path d="M217.125 18.2418C217.125 19.5682 216.039 20.6489 214.707 20.6489C213.374 20.6489 212.288 19.5682 212.288 18.2418C212.288 16.9154 213.374 15.8347 214.707 15.8347C216.039 15.851 217.125 16.9154 217.125 18.2418Z" fill="#0A677D"/>
<path d="M216.681 9.74316L213.703 16.9973L212.815 26.8223L215.315 17.2266L216.681 9.74316Z" fill="#0A677D"/>
<path d="M205.642 17.8488L214.131 16.6534L222.883 18.3564L214.131 18.5202L205.642 17.8488Z" fill="#0A677D"/>
<path d="M216.78 17.7342C216.78 19.0606 215.694 20.1414 214.361 20.1414C213.029 20.1414 211.943 19.0606 211.943 17.7342C211.943 16.4078 213.029 15.3271 214.361 15.3271C215.694 15.3435 216.78 16.4078 216.78 17.7342Z" fill="#0A7791"/>
<path d="M85.8761 49.1906C85.8761 50.517 84.7903 51.5978 83.4578 51.5978C82.1252 51.5978 81.0394 50.517 81.0394 49.1906C81.0394 47.8643 82.1252 46.7835 83.4578 46.7835C84.8068 46.7835 85.8761 47.8643 85.8761 49.1906Z" fill="#0A677D"/>
<path d="M85.432 40.692L82.4707 47.9462L81.5823 57.7712L84.0829 48.159L85.432 40.692Z" fill="#0A677D"/>
<path d="M74.4095 48.7977L82.8985 47.6023L91.6506 49.3053L82.8985 49.4527L74.4095 48.7977Z" fill="#0A677D"/>
<path d="M85.5471 48.683C85.5471 50.0094 84.4614 51.0901 83.1288 51.0901C81.7962 51.0901 80.7104 50.0094 80.7104 48.683C80.7104 47.3566 81.7962 46.2759 83.1288 46.2759C84.4614 46.2759 85.5471 47.3566 85.5471 48.683Z" fill="#0A7791"/>
<path d="M148.293 49.1906C148.293 50.517 147.207 51.5978 145.874 51.5978C144.542 51.5978 143.456 50.517 143.456 49.1906C143.456 47.8643 144.542 46.7835 145.874 46.7835C147.207 46.7835 148.293 47.8643 148.293 49.1906Z" fill="#0A677D"/>
<path d="M147.848 40.692L144.871 47.9462L143.999 57.7712L146.483 48.159L147.848 40.692Z" fill="#0A677D"/>
<path d="M136.81 48.7977L145.298 47.6023L154.051 49.3053L145.298 49.4527L136.81 48.7977Z" fill="#0A677D"/>
<path d="M147.947 48.683C147.947 50.0094 146.861 51.0901 145.529 51.0901C144.196 51.0901 143.11 50.0094 143.11 48.683C143.11 47.3566 144.196 46.2759 145.529 46.2759C146.861 46.2759 147.947 47.3566 147.947 48.683Z" fill="#0A7791"/>
<path d="M210.693 49.1906C210.693 50.517 209.607 51.5978 208.274 51.5978C206.942 51.5978 205.856 50.517 205.856 49.1906C205.856 47.8643 206.942 46.7835 208.274 46.7835C209.607 46.7835 210.693 47.8643 210.693 49.1906Z" fill="#0A677D"/>
<path d="M210.248 40.692L207.287 47.9462L206.399 57.7712L208.883 48.159L210.248 40.692Z" fill="#0A677D"/>
<path d="M199.21 48.7977L207.715 47.6023L216.451 49.3053L207.715 49.4527L199.21 48.7977Z" fill="#0A677D"/>
<path d="M210.347 48.683C210.347 50.0094 209.261 51.0901 207.929 51.0901C206.596 51.0901 205.51 50.0094 205.51 48.683C205.51 47.3566 206.596 46.2759 207.929 46.2759C209.278 46.2759 210.347 47.3566 210.347 48.683Z" fill="#0A7791"/>
<path d="M60.3765 10.2835C61.6104 5.12539 65.7726 2.16151 71.7115 2.07963C96.0102 1.75213 247.297 0.687752 247.297 0.687752C249.024 0.687752 250.373 1.68663 251.607 3.97914C250.85 1.70301 248.695 0 246.063 0H64.95C62.1368 0 59.7185 1.99776 59.192 4.74877L48.3341 61.8977C48.3341 61.8977 57.2343 23.5146 60.3765 10.2835Z" fill="#0A7791"/>
<path d="M249.353 1.01526C250.061 2.17789 250.357 3.60252 250.077 5.07627L249.09 10.3163C243.612 39.1691 218.277 60.0637 188.779 60.0637H48.6796L48.3341 61.8977H241.374L251.821 6.91028C252.265 4.51952 251.196 2.25976 249.353 1.01526Z" fill="#0A677D"/>
<path d="M40.421 100.068H37.9368C35.5185 100.068 33.5114 98.2503 33.2647 95.8596L26.7828 32.57C26.4044 28.8856 23.2951 26.0854 19.5607 26.0854H6.43248C2.63221 26.0854 -0.34549 29.3605 0.0328917 33.1267L7.51827 106.159C8.71922 117.851 18.6065 126.743 30.4186 126.743H40.421V100.068Z" fill="#14ADD1"/>
<path d="M9.7063 107.813L3.09285 43.2465C2.23738 34.9444 8.78502 27.7393 17.1752 27.7393H21.7652C22.9167 27.7393 24.0025 28.0013 24.9732 28.4926C23.6406 27.0025 21.6993 26.0854 19.5771 26.0854H6.43247C2.63221 26.0854 -0.34549 29.3605 0.0328917 33.1267L7.51826 106.159C8.22567 113.152 12.0753 119.129 17.5701 122.813C13.2598 119.112 10.315 113.839 9.7063 107.813Z" fill="#0A7791"/>
<path d="M24.5454 32.57L31.0273 95.8596C31.274 98.2503 32.3763 100.068 34.7946 100.068H38.052C35.6337 100.068 33.6266 98.2503 33.3798 95.8596L26.898 32.57C26.5196 28.8856 23.4103 26.0854 19.6758 26.0854H16.4185C20.1529 26.0854 24.1671 28.8856 24.5454 32.57Z" fill="#0A677D"/>
<path d="M56.0991 27.3955L56.2308 26.0854H14.6252L21.469 27.7393L56.0991 27.3955Z" fill="#0A7791"/>
<path d="M226.042 61.8977H239.17V100.068H217.816C215.348 100.068 213.292 98.2176 213.029 95.7941L210.972 76.8973C210.314 68.6115 217.717 61.8977 226.042 61.8977Z" fill="#0A677D"/>
<path d="M224.857 65.4183C222.209 83.3818 213.029 95.4666 217.816 100.068H239.154V63.1422C237.146 63.699 229.957 62.9457 224.857 65.4183Z" fill="#0A677D"/>
<path d="M215.233 95.9578L213.16 76.8318C212.568 69.3156 218.54 63.0931 225.844 61.8977H35.3046C26.9967 61.8977 19.5936 68.6115 20.2516 76.8809L22.308 95.7777C22.5712 98.2176 24.6441 100.052 27.0954 100.052H218.688C216.845 99.5112 215.447 97.9392 215.233 95.9578Z" fill="#14ADD1"/>
<path d="M27.0954 100.068H218.688C216.862 99.5112 215.464 97.9392 215.25 95.9578L213.276 77.716C207.501 91.7658 106.638 96.4491 88.3109 96.4491C71.0535 96.4491 31.9486 96.4491 22.4561 96.4491C22.9826 98.5615 24.858 100.068 27.0954 100.068Z" fill="#0A677D"/>
<path d="M219.264 64.5832C221.189 63.2405 223.442 62.2907 225.828 61.8977H35.3046C32.113 61.8977 29.0531 62.8966 26.536 64.5832H219.264Z" fill="#0A7791"/>
<path d="M22.7522 95.7122C22.0613 85.183 21.6829 81.2366 22.2258 76.406C23.147 68.153 29.6453 61.8977 37.9533 61.8977H35.3046C26.9967 61.8977 19.5936 68.6115 20.2516 76.8809L22.308 95.7777C22.4067 96.5473 22.8345 96.8584 22.7522 95.7122Z" fill="#0A7791"/>
<path d="M248.662 26.0854L252.594 31.1781L227.736 126.53L255.013 122.043C266.232 119.98 275.692 113.561 276.844 102.426L283.967 32.8811C284.345 29.2458 281.466 26.0854 277.798 26.0854H248.662Z" fill="#0A677D"/>
<path d="M272.698 95.3683C268.421 114.151 259.422 115.133 235.403 121.798C233.725 122.256 227.736 126.53 227.736 126.53L255.013 122.043C266.232 119.98 275.692 113.561 276.844 102.426L283.967 32.8811C284.033 32.2753 284 31.6694 283.885 31.0963C280.446 49.6164 275.824 81.7115 272.698 95.3683Z" fill="#0A677D"/>
<path d="M228.23 32.57L221.748 95.8596C221.501 98.2503 219.478 100.068 217.076 100.068H38.6607V126.743H224.594C236.406 126.743 246.293 117.851 247.494 106.159L254.98 33.1267C255.358 29.3605 252.397 26.0854 248.58 26.0854H235.452C231.718 26.0854 228.608 28.8856 228.23 32.57Z" fill="#14ADD1"/>
<path d="M248.564 26.0854H246.096C249.896 26.0854 252.874 29.3605 252.496 33.1267L245.01 106.159C243.809 117.851 233.922 126.743 222.11 126.743H224.578C236.39 126.743 246.277 117.851 247.478 106.159L254.963 33.1267C255.358 29.3605 252.38 26.0854 248.564 26.0854Z" fill="#0A677D"/>
<path d="M224.66 89.4569L229.645 40.7575C230.418 33.1431 236.867 27.3627 244.533 27.3627H252.167C252.348 27.3627 252.397 27.3463 252.364 27.3136C251.311 26.544 249.995 26.0691 248.564 26.0691H235.436C231.718 26.0691 228.592 28.8692 228.213 32.5536L222.39 89.4406H224.66V89.4569Z" fill="#0A7791"/>
<path d="M281.615 27.3955C280.562 26.5767 279.246 26.0854 277.814 26.0854H248.679L252.199 27.3791L281.615 27.3955Z" fill="#0A7791"/>
<path d="M224.397 69.9706L221.748 95.8595C221.501 98.2503 219.478 100.068 217.076 100.068H206.284L216.845 103.507C221.929 103.507 224.216 101.067 224.578 97.366C225.844 84.6099 224.397 69.9706 224.397 69.9706Z" fill="#0A677D"/>
<path d="M216.846 103.507H30.9944C29.3822 103.507 28.066 102.197 28.066 100.592V100.068H216.829V103.507H216.846Z" fill="#0A677D"/>
<path d="M216.845 101.558V100.068H28.0825V100.592C28.0825 100.936 28.1483 101.263 28.2634 101.574H216.845V101.558Z" fill="#0A677D"/>
<path d="M221.748 95.8596C221.501 98.2503 219.478 100.068 217.076 100.068H206.284L216.845 101.558C218.672 101.558 219.659 101.165 220.596 100.183C221.452 99.2819 221.748 95.8596 221.748 95.8596Z" fill="#0A677D"/>
<path d="M17.9319 123.059C21.5348 125.384 25.8286 126.743 30.4185 126.743H224.594C229.184 126.743 233.461 125.384 237.081 123.059H17.9319Z" fill="#0A677D"/>
</svg>
