<svg width="223" height="153" viewBox="0 0 223 153" fill="none" xmlns="http://www.w3.org/2000/svg">
<path d="M119.374 145.867H103.638L102.626 123.178H120.374L119.374 145.867Z" fill="#1A110D"/>
<path d="M120.065 130.095L120.374 123.178H102.626L102.848 128.118L120.065 130.095Z" fill="black"/>
<path d="M83.7038 144.83H139.309C142.063 144.83 144.607 146.299 145.978 148.696L147.115 150.672C147.46 151.277 147.028 152.043 146.324 152.043H76.7007C75.9967 152.043 75.552 151.277 75.9102 150.672L77.0465 148.696C78.4051 146.299 80.9495 144.83 83.7038 144.83Z" fill="#2B1E16"/>
<path d="M139.309 144.83H83.7037C82.2957 144.83 80.9371 145.225 79.7637 145.916C79.7637 145.916 86.4086 145.916 94.968 145.916C115.273 145.916 140.26 144.83 139.309 144.83Z" fill="#36251B"/>
<path d="M146.88 150.276H76.1324L75.9101 150.672C75.5643 151.277 75.9966 152.043 76.7006 152.043H146.312C147.016 152.043 147.46 151.277 147.102 150.672L146.88 150.276Z" fill="#1A110D"/>
<path d="M8.4235 126.809L6.52142 124.747L1.9021 4.07586L221.098 0L223 2.05026L210.377 126.809H8.4235Z" fill="#1A110D"/>
<path d="M6.5214 124.747L0 2.02561L221.098 0L208.487 124.747H6.5214Z" fill="#2B1E16"/>
<path d="M13.0057 119.547L12.0423 119.065L5.74326 7.64535L215.157 5.68149L215.503 6.64491L203.831 119.942L13.0057 119.547Z" fill="#36251B"/>
<path d="M12.0424 119.065L5.311 7.06481L215.157 5.68149L203.041 119.065H12.0424Z" fill="#1A110D"/>
<path d="M202.559 118.546H12.944L6.79315 8.6211L214.626 6.59549L202.559 118.546Z" fill="#0A7791"/>
<path d="M210.179 6.71905L180.438 118.546H202.559L214.626 6.59549L210.179 6.71905Z" fill="#096D85"/>
<path d="M82.8639 7.87997L63.7937 8.0652L53.0235 118.546H65.6464L82.8639 7.87997Z" fill="#0B86A3"/>
<path d="M95.1655 7.75653L90.2127 7.80598L71.7477 118.546H73.7733L95.1655 7.75653Z" fill="#0B86A3"/>
<path d="M210.377 126.809L208.487 124.747H6.52142L8.42351 126.809H210.377Z" fill="#1A110D"/>
</svg>
