<svg width="111" height="284" viewBox="0 0 111 284" fill="none" xmlns="http://www.w3.org/2000/svg">
<path d="M55.1514 223.369C55.1176 222.289 51.6988 114.865 86.6296 48.4109L89.2275 49.7717C54.6678 115.54 58.0529 222.188 58.0866 223.256L55.1514 223.369Z" fill="#A2C04E"/>
<path d="M57.7942 237.584L54.859 237.471C54.904 236.403 58.7389 129.766 24.4491 63.8519L27.0582 62.4911C61.6966 129.103 57.828 236.504 57.7942 237.584Z" fill="#A2C04E"/>
<path d="M55.0276 212.246C54.9264 211.099 44.5911 96.5785 70.8061 16.7639L73.5951 17.6861C47.5714 96.9046 57.8392 210.829 57.9517 211.976L55.0276 212.246Z" fill="#A2C04E"/>
<path d="M88.0691 65.9888C91.1746 65.9888 93.6922 63.4712 93.6922 60.3656C93.6922 57.2601 91.1746 54.7425 88.0691 54.7425C84.9635 54.7425 82.446 57.2601 82.446 60.3656C82.446 63.4712 84.9635 65.9888 88.0691 65.9888Z" fill="#FF6600"/>
<path d="M93.694 38.0806C93.8015 34.9769 91.3725 32.3737 88.2688 32.2663C85.1651 32.1588 82.562 34.5878 82.4545 37.6915C82.3471 40.7952 84.776 43.3983 87.8797 43.5058C90.9834 43.6132 93.5865 41.1843 93.694 38.0806Z" fill="#FF6600"/>
<path d="M96.0202 62.6936C99.1257 62.6936 101.643 60.176 101.643 57.0704C101.643 53.9649 99.1257 51.4473 96.0202 51.4473C92.9146 51.4473 90.3971 53.9649 90.3971 57.0704C90.3971 60.176 92.9146 62.6936 96.0202 62.6936Z" fill="#FF6600"/>
<path d="M84.0879 37.1984C86.2809 39.3914 86.2809 42.9565 84.0879 45.1495C81.8949 47.3425 78.3298 47.3425 76.1368 45.1495C73.9438 42.9565 73.9438 39.3914 76.1368 37.1984C78.3411 35.0054 81.8949 35.0054 84.0879 37.1984Z" fill="#FF6600"/>
<path d="M99.3041 54.7538C102.41 54.7538 104.927 52.2362 104.927 49.1307C104.927 46.0251 102.41 43.5075 99.3041 43.5075C96.1985 43.5075 93.6809 46.0251 93.6809 49.1307C93.6809 52.2362 96.1985 54.7538 99.3041 54.7538Z" fill="#FF6600"/>
<path d="M76.8229 43.5075C79.9268 43.5075 82.446 46.0267 82.446 49.1307C82.446 52.2346 79.9268 54.7538 76.8229 54.7538C73.7189 54.7538 71.1997 52.2346 71.1997 49.1307C71.1997 46.0267 73.7189 43.5075 76.8229 43.5075Z" fill="#FF6600"/>
<path d="M96.0202 46.8026C99.1257 46.8026 101.643 44.285 101.643 41.1795C101.643 38.0739 99.1257 35.5564 96.0202 35.5564C92.9146 35.5564 90.3971 38.0739 90.3971 41.1795C90.3971 44.285 92.9146 46.8026 96.0202 46.8026Z" fill="#FF6600"/>
<path d="M76.1368 53.1006C78.3298 50.9076 81.8949 50.9076 84.0879 53.1006C86.2809 55.2936 86.2809 58.8587 84.0879 61.0517C81.8949 63.2447 78.3298 63.2447 76.1368 61.0517C73.9438 58.8587 73.9438 55.2936 76.1368 53.1006Z" fill="#FF6600"/>
<path d="M95.3713 49.5284C95.6078 45.4918 92.5273 42.0278 88.4907 41.7912C84.4541 41.5547 80.9901 44.6352 80.7535 48.6718C80.517 52.7084 83.5975 56.1724 87.6341 56.409C91.6707 56.6455 95.1347 53.565 95.3713 49.5284Z" fill="#FFC830"/>
<path d="M94.4123 49.2925C94.4957 45.7905 91.7244 42.884 88.2224 42.8006C84.7203 42.7172 81.8138 45.4886 81.7304 48.9906C81.647 52.4926 84.4184 55.3992 87.9204 55.4826C91.4225 55.5659 94.329 52.7946 94.4123 49.2925Z" fill="#FFDB78"/>
<path d="M72.1332 34.3755C75.2388 34.3755 77.7563 31.8579 77.7563 28.7523C77.7563 25.6468 75.2388 23.1292 72.1332 23.1292C69.0277 23.1292 66.5101 25.6468 66.5101 28.7523C66.5101 31.8579 69.0277 34.3755 72.1332 34.3755Z" fill="#FF6600"/>
<path d="M72.1332 11.8942C75.2388 11.8942 77.7563 9.37669 77.7563 6.27113C77.7563 3.16557 75.2388 0.64801 72.1332 0.64801C69.0277 0.64801 66.5101 3.16557 66.5101 6.27113C66.5101 9.37669 69.0277 11.8942 72.1332 11.8942Z" fill="#FF6600"/>
<path d="M80.0843 31.0916C83.1899 31.0916 85.7074 28.5741 85.7074 25.4685C85.7074 22.363 83.1899 19.8454 80.0843 19.8454C76.9787 19.8454 74.4612 22.363 74.4612 25.4685C74.4612 28.5741 76.9787 31.0916 80.0843 31.0916Z" fill="#FF6600"/>
<path d="M68.152 5.5851C70.3451 7.77812 70.3451 11.3432 68.152 13.5362C65.959 15.7292 62.394 15.7292 60.2009 13.5362C58.0079 11.3432 58.0079 7.77812 60.2009 5.5851C62.4052 3.39208 65.959 3.39208 68.152 5.5851Z" fill="#FF6600"/>
<path d="M83.3682 23.1405C86.4738 23.1405 88.9913 20.6229 88.9913 17.5173C88.9913 14.4118 86.4738 11.8942 83.3682 11.8942C80.2626 11.8942 77.7451 14.4118 77.7451 17.5173C77.7451 20.6229 80.2626 23.1405 83.3682 23.1405Z" fill="#FF6600"/>
<path d="M60.887 11.8942C63.9909 11.8942 66.5101 14.4134 66.5101 17.5173C66.5101 20.6213 63.9909 23.1405 60.887 23.1405C57.783 23.1405 55.2639 20.6213 55.2639 17.5173C55.2639 14.4134 57.783 11.8942 60.887 11.8942Z" fill="#FF6600"/>
<path d="M80.0843 15.1894C83.1899 15.1894 85.7074 12.6719 85.7074 9.56633C85.7074 6.46076 83.1899 3.94321 80.0843 3.94321C76.9787 3.94321 74.4612 6.46076 74.4612 9.56633C74.4612 12.6719 76.9787 15.1894 80.0843 15.1894Z" fill="#FF6600"/>
<path d="M60.2009 21.4873C62.394 19.2943 65.959 19.2943 68.152 21.4873C70.3451 23.6803 70.3451 27.2454 68.152 29.4384C65.959 31.6314 62.394 31.6314 60.2009 29.4384C58.0079 27.2454 58.0079 23.6803 60.2009 21.4873Z" fill="#FF6600"/>
<path d="M79.4545 17.5174C79.4545 21.566 76.1706 24.8387 72.1332 24.8387C68.0846 24.8387 64.8119 21.5548 64.8119 17.5174C64.8119 13.4687 68.0958 10.1961 72.1332 10.1961C76.1706 10.1848 79.4545 13.4687 79.4545 17.5174Z" fill="#FFC830"/>
<path d="M78.4761 17.5174C78.4761 21.0262 75.6308 23.8603 72.1332 23.8603C68.6244 23.8603 65.7903 21.0149 65.7903 17.5174C65.7903 14.0198 68.6356 11.1745 72.1332 11.1745C75.6308 11.1633 78.4761 14.0085 78.4761 17.5174Z" fill="#FFDB78"/>
<path d="M31.4331 75.1206C31.4331 78.2245 28.9139 80.7437 25.8099 80.7437C22.706 80.7437 20.1868 78.2245 20.1868 75.1206C20.1868 72.0166 22.706 69.4974 25.8099 69.4974C28.9139 69.4974 31.4331 72.0053 31.4331 75.1206Z" fill="#FF6600"/>
<path d="M31.4407 52.6516C31.4604 49.546 28.9588 47.0126 25.8532 46.9929C22.7476 46.9732 20.2141 49.4749 20.1945 52.5804C20.1748 55.686 22.6765 58.2195 25.782 58.2391C28.8876 58.2588 31.4211 55.7572 31.4407 52.6516Z" fill="#FF6600"/>
<path d="M37.7309 67.8443C39.9239 70.0373 39.9239 73.6023 37.7309 75.7954C35.5379 77.9884 31.9728 77.9884 29.7798 75.7954C27.5868 73.6023 27.5868 70.0373 29.7798 67.8443C31.9841 65.6512 35.5379 65.6512 37.7309 67.8443Z" fill="#FF6600"/>
<path d="M17.8589 61.5464C20.9644 61.5464 23.482 59.0289 23.482 55.9233C23.482 52.8177 20.9644 50.3002 17.8589 50.3002C14.7533 50.3002 12.2357 52.8177 12.2357 55.9233C12.2357 59.0289 14.7533 61.5464 17.8589 61.5464Z" fill="#FF6600"/>
<path d="M37.0562 58.2512C40.1602 58.2512 42.6793 60.7703 42.6793 63.8743C42.6793 66.9783 40.1602 69.4974 37.0562 69.4974C33.9522 69.4974 31.4331 66.9783 31.4331 63.8743C31.4331 60.7703 33.9522 58.2512 37.0562 58.2512Z" fill="#FF6600"/>
<path d="M14.5637 58.2512C17.6677 58.2512 20.1869 60.7703 20.1869 63.8743C20.1869 66.9783 17.6677 69.4974 14.5637 69.4974C11.4598 69.4974 8.94061 66.9783 8.94061 63.8743C8.95186 60.7703 11.4598 58.2512 14.5637 58.2512Z" fill="#FF6600"/>
<path d="M33.7611 61.5464C36.8666 61.5464 39.3842 59.0289 39.3842 55.9233C39.3842 52.8177 36.8666 50.3002 33.7611 50.3002C30.6555 50.3002 28.1379 52.8177 28.1379 55.9233C28.1379 59.0289 30.6555 61.5464 33.7611 61.5464Z" fill="#FF6600"/>
<path d="M13.8889 67.8443C16.0819 65.6512 19.6469 65.6512 21.84 67.8443C24.033 70.0373 24.033 73.6023 21.84 75.7954C19.6469 77.9884 16.0819 77.9884 13.8889 75.7954C11.6959 73.6023 11.6959 70.0485 13.8889 67.8443Z" fill="#FF6600"/>
<path d="M33.1306 64.3865C33.4173 60.3531 30.38 56.851 26.3467 56.5644C22.3134 56.2777 18.8113 59.315 18.5246 63.3483C18.238 67.3816 21.2752 70.8837 25.3085 71.1704C29.3419 71.4571 32.8439 68.4198 33.1306 64.3865Z" fill="#FFC830"/>
<path d="M28.2619 69.7337C31.4984 68.3931 33.0353 64.6825 31.6947 61.4461C30.3541 58.2096 26.6436 56.6727 23.4071 58.0133C20.1706 59.3539 18.6337 63.0644 19.9743 66.3009C21.3149 69.5374 25.0254 71.0743 28.2619 69.7337Z" fill="#FFDB78"/>
<path d="M87.9116 212.831C67.1848 192.475 73.4265 127.91 73.4265 127.91H37.5735C37.5735 127.91 43.8152 192.475 23.0884 212.831C10.1327 225.562 -9.91937 242.667 5.70166 263.832C21.4127 285.122 42.3757 283.536 55.5 283.536C68.6244 283.536 89.5986 285.11 105.298 263.832C120.919 242.667 100.867 225.562 87.9116 212.831Z" fill="#FFC830"/>
<path d="M87.9116 212.831C67.1848 192.475 73.4265 127.91 73.4265 127.91H64.8344C64.1034 155.171 63.0462 186.481 66.9711 199.178C71.8857 215.069 83.3456 227.755 80.6015 246.086C77.2502 268.455 46.3568 278.16 18.871 276.248C31.8379 284.379 45.817 283.547 55.5 283.547C68.6244 283.547 89.5986 285.122 105.298 263.844C120.919 242.667 100.867 225.562 87.9116 212.831Z" fill="#FFB826"/>
<path d="M29.7349 281.129C39.2267 283.963 48.4824 283.547 55.5 283.547C62.5177 283.547 71.7846 283.963 81.2877 281.129H29.7349Z" fill="#FF8C00"/>
<path d="M72.8079 137.425C73.0666 131.588 73.4153 127.91 73.4153 127.91H37.5623C37.5623 127.91 37.7871 130.295 38.0121 134.265C38.0795 135.232 72.8079 137.425 72.8079 137.425Z" fill="#FFB826"/>
<path d="M73.0554 132.881C73.2466 129.766 73.4265 127.922 73.4265 127.922H37.5735C37.5735 127.922 37.7534 129.755 37.9446 132.881H73.0554Z" fill="#FF8C00"/>
<path d="M72.5943 131.464H38.4057C36.3927 131.464 34.762 129.833 34.762 127.82C34.762 125.807 36.3927 124.177 38.4057 124.177H72.5943C74.6073 124.177 76.2381 125.807 76.2381 127.82C76.2268 129.833 74.5961 131.464 72.5943 131.464Z" fill="#FFC830"/>
<path d="M35.1781 129.429C35.7741 130.621 36.9775 131.464 38.4057 131.464H72.5943C74.0225 131.464 75.2259 130.621 75.8219 129.429H35.1781Z" fill="#FFB826"/>
<path d="M75.3383 125.515C74.6748 124.716 73.7077 124.188 72.5831 124.188H38.3945C37.2698 124.188 36.3139 124.728 35.6391 125.515H75.3383Z" fill="#FFDB78"/>
<path d="M42.5893 141.057C42.5893 141.057 44.9285 174.166 40.8349 190.282C36.7412 206.398 27.643 221.052 16.8017 230.431C5.96028 239.81 1.5068 257.051 15.6321 260.031C23.0658 261.594 29.9373 248.807 34.7619 237.471C40.1939 224.695 42.8817 216.025 46.8066 187.74C48.9434 172.344 42.5893 141.057 42.5893 141.057Z" fill="#FFDB78"/>
</svg>
