<svg width="187" height="233" viewBox="0 0 187 233" fill="none" xmlns="http://www.w3.org/2000/svg">
<path d="M7.99103 11.9629H167.062L150.795 233H26.2919L7.99103 11.9629Z" fill="#750C03"/>
<path d="M150.795 233L160.153 229.48L179.31 9.75085L167.062 11.9626L150.795 233Z" fill="#660A03"/>
<path d="M3.88847 4.70889H170.582L153.542 230.146H23.0693L3.88847 4.70889Z" fill="#A6330A"/>
<path d="M89.5064 9.94113L90.0416 178.014H87.0331L85.3683 10.4049L84.9402 9.94113H8.26454L26.28 227.696H150.664L166.575 10.4405L166.17 9.94113H89.5064Z" fill="#750C03"/>
<path d="M22.8909 178.918L24.6983 202.879H151.817L153.53 178.918H22.8909Z" fill="#BF6239"/>
<path d="M153.958 177.693L166.135 10.5002L165.825 10.1077L90.1605 10.5002L90.4221 177.301L90.7431 177.693H153.958Z" fill="#5EBEBF"/>
<path d="M86.3076 177.693L84.9402 10.5002L84.6191 10.1077L8.96608 10.5002L22.772 177.301L23.0931 177.693H86.3076Z" fill="#5EBEBF"/>
<path d="M153.34 176.932L165.825 10.1076L165.516 9.73901H89.5422L90.1248 176.932L90.4221 177.301L153.34 176.932Z" fill="#95DDDE"/>
<path d="M85.7012 176.932L84.619 10.1076L84.3218 9.73901H8.34766L22.4746 176.932L22.7719 177.301L85.7012 176.932Z" fill="#95DDDE"/>
<path d="M153.649 177.301L165.825 10.1077H89.8513L90.4221 177.301H153.649Z" fill="#89D5D6"/>
<path d="M85.9985 177.301L84.6191 10.1077H8.64497L22.7719 177.301H85.9985Z" fill="#89D5D6"/>
<path d="M24.8173 204.496L26.5178 227.09H150.081L151.698 204.496H24.8173Z" fill="#BF6239"/>
<path d="M114.633 177.301L129.176 10.1078H119.39L106.333 177.301H114.633Z" fill="#95DDDE"/>
<path d="M120.484 177.301L136.073 10.1078H132.542L117.487 177.301H120.484Z" fill="#95DDDE"/>
<path d="M57.3047 178.918H53.4994L51.7157 202.879H55.4853L57.3047 178.918Z" fill="#C9714A"/>
<path d="M36.2212 202.879H47.1375L48.8737 178.918H37.8623L36.2212 202.879Z" fill="#C9714A"/>
<path d="M51.5968 204.496L49.9201 227.09H53.654L55.3664 204.496H51.5968Z" fill="#C9714A"/>
<path d="M57.4236 177.301L72.3949 10.1078H67.8999L53.6183 177.301H57.4236Z" fill="#95DDDE"/>
<path d="M48.9927 177.301L62.4419 10.1078H49.4445L37.9813 177.301H48.9927Z" fill="#95DDDE"/>
<path d="M36.1143 204.496L34.5565 227.09H45.3776L47.0186 204.496H36.1143Z" fill="#C9714A"/>
<path d="M3.88847 4.70897L24.9243 2.37823H183.413L170.582 4.70897H3.88847Z" fill="#BF6239"/>
<path d="M153.541 230.146L163.34 226.46L183.413 2.37823L170.582 4.70897L153.541 230.146Z" fill="#750C03"/>
<path d="M81.2657 184.851V182.402H83.8462L86.1531 184.982L92.8954 183.757V182.402H95.0597L97.0693 184.507V186.956H83.2753L81.2657 184.851Z" fill="#B54918"/>
<path d="M82.7284 186.35L83.8462 184.851V182.402L82.7165 183.9L82.7284 186.35Z" fill="#FF8C00"/>
<path d="M93.9301 186.35L95.0479 184.851V182.402L93.9301 183.9V186.35Z" fill="#FF8C00"/>
<path d="M81.6581 183.282L80.136 185.731H93.0619L93.93 183.282H81.6581Z" fill="#FFCD42"/>
<path d="M80.136 183.9V186.35H93.93V183.9H80.136Z" fill="#FFB826"/>
<path d="M80.136 183.9L81.2538 182.402H83.8462L82.7165 183.9H80.136Z" fill="#FFCD42"/>
<path d="M91.3378 183.9L92.4555 182.402H95.0479L93.93 183.9H91.3378Z" fill="#FFCD42"/>
<path d="M81.1349 119.211H78.7923V121.685L80.0885 123.445V130.33H78.7923V132.399L79.696 133.647H82.0387V120.46L81.1349 119.211Z" fill="#B54918"/>
<path d="M77.3534 130.996L78.7923 129.925H81.1348L79.696 130.996H77.3534Z" fill="#FFCD42"/>
<path d="M77.3534 120.269L78.7923 119.211H81.1348L79.696 120.281L77.3534 120.269Z" fill="#FFCD42"/>
<path d="M80.2906 132.018L77.948 133.469V121.114L80.2906 120.269V120.281V132.018Z" fill="#FF8C00"/>
<path d="M79.696 133.469H77.3534V120.269H79.696V120.281V133.469Z" fill="#FFB826"/>
<path d="M79.696 133.469L81.1349 132.399V129.925L79.696 130.996V133.469Z" fill="#FF8C00"/>
<path d="M79.696 122.755L81.1349 121.685V119.211L79.696 120.281V120.269V122.755Z" fill="#FF8C00"/>
<path d="M97.9731 119.211H95.6305V121.685L96.9267 123.445V130.33H95.6305V132.399L96.5343 133.647H98.8769V120.46L97.9731 119.211Z" fill="#B54918"/>
<path d="M94.1917 130.996L95.6305 129.925H97.9731L96.5343 130.996H94.1917Z" fill="#FFCD42"/>
<path d="M94.1917 120.269L95.6306 119.211H97.9731L96.5343 120.281L94.1917 120.269Z" fill="#FFCD42"/>
<path d="M97.1289 132.018L94.7863 133.469V121.114L97.1289 120.269V120.281V132.018Z" fill="#FF8C00"/>
<path d="M96.5343 133.469H94.1917V120.269H96.5343V120.281V133.469Z" fill="#FFB826"/>
<path d="M96.5342 133.469L97.973 132.399V129.925L96.5342 130.996V133.469Z" fill="#FF8C00"/>
<path d="M96.5342 122.755L97.973 121.685V119.211L96.5342 120.281V120.269V122.755Z" fill="#FF8C00"/>
<path d="M82.2407 210.121V207.671H84.8211L87.1399 210.264L93.8705 209.039V207.671H96.0346L98.0444 209.776V212.226H84.2503L82.2407 210.121Z" fill="#B54918"/>
<path d="M83.7152 211.631L84.8211 210.121V207.671L83.7033 209.169L83.7152 211.631Z" fill="#FF8C00"/>
<path d="M94.917 211.631L96.0347 210.121V207.671L94.9051 209.169L94.917 211.631Z" fill="#FF8C00"/>
<path d="M82.6332 208.551L81.1229 211.001H94.037L94.917 208.551H94.9051H82.6332Z" fill="#FFCD42"/>
<path d="M81.1229 209.169V211.631H94.917V209.169H94.9051H81.1229Z" fill="#FFB826"/>
<path d="M81.123 209.169L82.2408 207.671H84.8212L83.7034 209.169H81.123Z" fill="#FFCD42"/>
<path d="M92.3246 209.169L93.4425 207.671H96.0347L94.9051 209.169H94.917H92.3246Z" fill="#FFCD42"/>
<path d="M170.261 9.0492L4.13815 7.69356L3.94792 5.44611L171.105 2.92514L170.261 9.0492Z" fill="#750C03"/>
<path d="M170.261 9.04932L183.092 5.99323L183.413 2.37823L170.677 4.95868L170.261 9.04932Z" fill="#660A03"/>
<path d="M174.471 1.41492H0V5.66015H174.471V1.41492Z" fill="#A6330A"/>
<path d="M174.471 5.67222L186.409 3.4842L186.683 0L174.471 1.41508V5.67222Z" fill="#750C03"/>
<path d="M0 1.41508L9.6439 0H186.683L174.471 1.41508H0Z" fill="#BF6239"/>
</svg>
